<?xml version="1.0" encoding="UTF-8"?>
<svg id="Layer_1" data-name="Layer 1" xmlns="http://www.w3.org/2000/svg" viewBox="0 0 400 100">
  <defs>
    <style>
      .cls-1 {
        fill: #ffa200;
      }

      .cls-2 {
        fill: #75787b;
        stroke: #75787b;
        stroke-linecap: round;
        stroke-miterlimit: 10;
        stroke-width: 1.5px;
      }
    </style>
  </defs>
  <g>
    <line id="line" class="cls-2" x1="113" y1="5" x2="96" y2="95"/>
    <g id="logo">
      <path class="cls-1" d="M47.71,11.63c-16.67,0-30.98,9.49-37.14,23.06-1.82,4.02-2.94,8.4-3.18,12.99-.04.65-.06,1.3-.06,1.96s.02,1.31.06,1.96c.26,4.77,1.44,9.31,3.41,13.46,6.28,13.31,20.44,22.59,36.92,22.59,11.85,0,22.5-4.8,29.89-12.46.02-.02.04-.03.05-.05,5.79-6.02,9.56-13.79,10.31-22.36.09-1.04.13-2.09.13-3.15,0-21-18.08-38.01-40.39-38.01ZM54.2,71.8c1.37,1.92,7.57-.7,7.16,3.69h-26.52v-2.81c6.32.48,8.45.35,7.58-6.59-25.8-.1-29.99-28.64-2.85-31.95l-.16,3.6c-9.95.82-10.76,18.65-4.31,22.93,6.05,4,25.19,4.58,28.38-3.28,3.25-8,.67-20.07-9.7-20.44v23.5h-11.36v-30.54c-1.98-2.26-4.72-2.55-7.59-2.36v-2.81c3.21,1,16.22-4.01,17.47-3.72,2.74.65,1.03,10.7,1.48,13.11,28.36.28,27.55,31.26,0,31.95l.42,5.71Z"/>
      <g>
        <path class="cls-1" d="M74.18,87.49h-1.53v-.72h3.91v.72h-1.53v3.89h-.86v-3.89Z"/>
        <path class="cls-1" d="M81.45,91.38v-3.06s-1.52,2.53-1.52,2.53h-.38l-1.52-2.49v3.02h-.82v-4.61h.71l1.83,3.06,1.8-3.06h.7v4.61s-.8,0-.8,0Z"/>
      </g>
    </g>
  </g>
  <g>
    <path d="M123.65,11.99h4.21v18.21h-4.21V11.99Z"/>
    <path d="M146.29,26.82v3.38h-14.1V11.99h13.76v3.38h-9.57v3.95h8.46v3.28h-8.46v4.21h9.91Z"/>
    <path d="M163.74,26.82v3.38h-14.1V11.99h13.76v3.38h-9.57v3.95h8.46v3.28h-8.46v4.21h9.91Z"/>
    <path d="M181.19,26.82v3.38h-14.1V11.99h13.76v3.38h-9.57v3.95h8.46v3.28h-8.46v4.21h9.91Z"/>
    <path d="M115.15,50.36c0-5.49,4.21-9.42,9.89-9.42,3.15,0,5.78,1.14,7.49,3.23l-2.71,2.5c-1.22-1.41-2.76-2.13-4.58-2.13-3.41,0-5.83,2.39-5.83,5.83s2.42,5.83,5.83,5.83c1.82,0,3.36-.73,4.58-2.16l2.71,2.5c-1.72,2.11-4.34,3.25-7.52,3.25-5.65,0-9.86-3.93-9.86-9.42Z"/>
    <path d="M133.82,50.36c0-5.41,4.21-9.42,9.96-9.42s9.96,3.98,9.96,9.42-4.24,9.42-9.96,9.42-9.96-4.01-9.96-9.42ZM149.49,50.36c0-3.46-2.45-5.83-5.7-5.83s-5.7,2.37-5.7,5.83,2.45,5.83,5.7,5.83,5.7-2.37,5.7-5.83Z"/>
    <path d="M173.5,59.47l-.03-10.93-5.36,9h-1.9l-5.33-8.77v10.69h-3.95v-18.21h3.49l6.82,11.32,6.71-11.32h3.46l.05,18.21h-3.95Z"/>
    <path d="M197.56,47.87c0,4.06-3.04,6.58-7.91,6.58h-3.67v5.02h-4.21v-18.21h7.88c4.86,0,7.91,2.52,7.91,6.61ZM193.29,47.87c0-2-1.3-3.17-3.88-3.17h-3.43v6.32h3.43c2.58,0,3.88-1.17,3.88-3.15Z"/>
    <path d="M200.31,51.46v-10.2h4.21v10.04c0,3.46,1.51,4.89,4.06,4.89s4.06-1.43,4.06-4.89v-10.04h4.16v10.2c0,5.36-3.07,8.33-8.25,8.33s-8.25-2.97-8.25-8.33Z"/>
    <path d="M224.43,44.69h-5.83v-3.43h15.87v3.43h-5.83v14.78h-4.21v-14.78Z"/>
    <path d="M250.83,56.09v3.38h-14.1v-18.21h13.76v3.38h-9.57v3.95h8.46v3.28h-8.46v4.21h9.91Z"/>
    <path d="M265.79,59.47l-3.51-5.07h-3.88v5.07h-4.21v-18.21h7.88c4.87,0,7.91,2.52,7.91,6.61,0,2.73-1.38,4.73-3.75,5.75l4.08,5.85h-4.53ZM261.84,44.69h-3.43v6.35h3.43c2.58,0,3.88-1.2,3.88-3.17s-1.3-3.17-3.88-3.17Z"/>
    <path d="M279.24,57.67l1.43-3.17c1.54,1.12,3.82,1.9,6.01,1.9,2.5,0,3.51-.83,3.51-1.95,0-3.41-10.59-1.07-10.59-7.83,0-3.1,2.5-5.67,7.67-5.67,2.29,0,4.63.55,6.32,1.61l-1.3,3.2c-1.69-.96-3.43-1.43-5.05-1.43-2.5,0-3.46.94-3.46,2.08,0,3.36,10.59,1.04,10.59,7.73,0,3.04-2.52,5.65-7.73,5.65-2.89,0-5.8-.86-7.42-2.11Z"/>
    <path d="M296.12,50.36c0-5.41,4.21-9.42,9.96-9.42s9.96,3.98,9.96,9.42-4.24,9.42-9.96,9.42-9.96-4.01-9.96-9.42ZM311.78,50.36c0-3.46-2.45-5.83-5.7-5.83s-5.7,2.37-5.7,5.83,2.45,5.83,5.7,5.83,5.7-2.37,5.7-5.83Z"/>
    <path d="M318.07,50.36c0-5.49,4.21-9.42,9.89-9.42,3.15,0,5.78,1.14,7.49,3.23l-2.71,2.5c-1.22-1.41-2.76-2.13-4.58-2.13-3.41,0-5.83,2.39-5.83,5.83s2.42,5.83,5.83,5.83c1.82,0,3.36-.73,4.58-2.16l2.71,2.5c-1.72,2.11-4.34,3.25-7.52,3.25-5.65,0-9.86-3.93-9.86-9.42Z"/>
    <path d="M338.29,41.26h4.21v18.21h-4.21v-18.21Z"/>
    <path d="M360.92,56.09v3.38h-14.1v-18.21h13.76v3.38h-9.57v3.95h8.46v3.28h-8.46v4.21h9.91Z"/>
    <path d="M368.04,44.69h-5.83v-3.43h15.87v3.43h-5.83v14.78h-4.21v-14.78Z"/>
    <path d="M388.75,53.02v6.45h-4.21v-6.5l-7.05-11.71h4.47l4.87,8.09,4.87-8.09h4.14l-7.08,11.76Z"/>
  </g>
  <g>
    <path d="M126.92,86.94h-2.08l-8.58-13.18h-.09c.11,1.55.17,2.96.17,4.25v8.93h-1.69v-15.71h2.06l8.56,13.13h.09c-.01-.19-.05-.81-.1-1.86-.05-1.05-.07-1.8-.05-2.25v-9.01h1.71v15.71Z"/>
    <path d="M131.24,86.94v-15.71h1.83v15.71h-1.83Z"/>
    <path d="M139.2,80.41v6.53h-1.83v-15.71h4.31c1.93,0,3.35.37,4.27,1.11.92.74,1.38,1.85,1.38,3.33,0,2.08-1.05,3.48-3.16,4.21l4.26,7.06h-2.16l-3.8-6.53h-3.28ZM139.2,78.84h2.5c1.29,0,2.23-.26,2.84-.77.6-.51.9-1.28.9-2.3s-.31-1.79-.92-2.25c-.61-.46-1.6-.69-2.95-.69h-2.37v6Z"/>
    <path d="M157.93,86.94l-5.33-13.92h-.09c.1,1.1.15,2.41.15,3.93v9.99h-1.69v-15.71h2.75l4.97,12.96h.09l5.02-12.96h2.73v15.71h-1.83v-10.12c0-1.16.05-2.42.15-3.78h-.09l-5.37,13.9h-1.47Z"/>
    <path d="M180.71,86.94l-1.96-5h-6.29l-1.93,5h-1.85l6.21-15.77h1.54l6.18,15.77h-1.89ZM178.19,80.31l-1.83-4.87c-.24-.62-.48-1.37-.73-2.27-.16.69-.38,1.44-.68,2.27l-1.85,4.87h5.08Z"/>
    <path d="M202.33,71.24v10.16c0,1.79-.54,3.2-1.62,4.22-1.08,1.02-2.57,1.54-4.46,1.54s-3.35-.52-4.39-1.55c-1.04-1.03-1.55-2.45-1.55-4.25v-10.12h1.83v10.25c0,1.31.36,2.32,1.07,3.02s1.77,1.05,3.16,1.05,2.35-.35,3.06-1.06c.72-.71,1.07-1.72,1.07-3.04v-10.23h1.83Z"/>
    <path d="M218.76,86.94h-2.08l-8.58-13.18h-.09c.11,1.55.17,2.96.17,4.25v8.93h-1.69v-15.71h2.06l8.56,13.13h.09c-.01-.19-.05-.81-.1-1.86-.05-1.05-.07-1.8-.05-2.25v-9.01h1.71v15.71Z"/>
    <path d="M223.08,86.94v-15.71h1.83v15.71h-1.83Z"/>
    <path d="M238.18,71.24h1.97l-5.66,15.71h-1.8l-5.63-15.71h1.93l3.61,10.16c.42,1.17.75,2.3.99,3.41.26-1.16.59-2.32,1.01-3.47l3.59-10.1Z"/>
    <path d="M251.06,86.94h-8.75v-15.71h8.75v1.62h-6.93v5.06h6.51v1.61h-6.51v5.78h6.93v1.63Z"/>
    <path d="M256.37,80.41v6.53h-1.83v-15.71h4.31c1.93,0,3.35.37,4.27,1.11.92.74,1.38,1.85,1.38,3.33,0,2.08-1.05,3.48-3.16,4.21l4.26,7.06h-2.16l-3.8-6.53h-3.28ZM256.37,78.84h2.5c1.29,0,2.23-.26,2.84-.77.6-.51.9-1.28.9-2.3s-.31-1.79-.92-2.25c-.61-.46-1.6-.69-2.95-.69h-2.37v6Z"/>
    <path d="M277,82.77c0,1.38-.5,2.46-1.5,3.23s-2.36,1.16-4.08,1.16c-1.86,0-3.29-.24-4.3-.72v-1.76c.64.27,1.35.49,2.11.64s1.51.24,2.26.24c1.22,0,2.13-.23,2.75-.69.62-.46.92-1.11.92-1.93,0-.54-.11-.99-.33-1.34-.22-.35-.58-.67-1.1-.96-.51-.29-1.29-.63-2.34-1-1.46-.52-2.5-1.14-3.13-1.86-.63-.72-.94-1.65-.94-2.8,0-1.21.46-2.17,1.36-2.89s2.11-1.07,3.61-1.07,3,.29,4.31.86l-.57,1.59c-1.3-.54-2.56-.82-3.78-.82-.97,0-1.72.21-2.27.62s-.82.99-.82,1.73c0,.54.1.99.3,1.34.2.35.54.67,1.01.96.48.29,1.21.61,2.19.96,1.65.59,2.78,1.22,3.4,1.89.62.67.93,1.55.93,2.62Z"/>
    <path d="M280.21,86.94v-15.71h1.83v15.71h-1.83Z"/>
    <path d="M291.18,86.94h-1.83v-14.08h-4.97v-1.62h11.77v1.62h-4.97v14.08Z"/>
    <path d="M302.52,79.09l4.19-7.85h1.98l-5.24,9.61v6.09h-1.85v-6l-5.23-9.7h2l4.16,7.85Z"/>
  </g>
</svg>