<?xml version="1.0" encoding="UTF-8"?>
<svg version="1.1" xmlns="http://www.w3.org/2000/svg" width="229" height="229">
<path d="M0 0 C0.67282013 0.00304138 1.34564026 0.00608276 2.03884888 0.00921631 C13.03037548 0.08238584 23.21893608 1.02469063 33.6875 4.4375 C34.35700684 4.64648926 35.02651367 4.85547852 35.71630859 5.07080078 C50.95023632 9.92572881 64.90291612 17.58550909 76.6875 28.4375 C77.47036377 29.15679688 77.47036377 29.15679688 78.26904297 29.890625 C98.72924583 48.90438935 112.75949022 75.12410239 114.9909668 103.2644043 C115.12272674 107.09829739 115.15537351 110.91401802 115.125 114.75 C115.12043793 115.75923019 115.12043793 115.75923019 115.11578369 116.78884888 C115.04261416 127.78037548 114.10030937 137.96893608 110.6875 148.4375 C110.37401611 149.44176025 110.37401611 149.44176025 110.05419922 150.46630859 C105.19927119 165.70023632 97.53949091 179.65291612 86.6875 191.4375 C86.20796875 191.95940918 85.7284375 192.48131836 85.234375 193.01904297 C66.22061065 213.47924583 40.00089761 227.50949022 11.8605957 229.7409668 C8.02670261 229.87272674 4.21098198 229.90537351 0.375 229.875 C-0.29782013 229.87195862 -0.97064026 229.86891724 -1.66384888 229.86578369 C-12.65537548 229.79261416 -22.84393608 228.85030937 -33.3125 225.4375 C-34.31676025 225.12401611 -34.31676025 225.12401611 -35.34130859 224.80419922 C-50.57523632 219.94927119 -64.52791612 212.28949091 -76.3125 201.4375 C-76.83440918 200.95796875 -77.35631836 200.4784375 -77.89404297 199.984375 C-98.35424583 180.97061065 -112.38449022 154.75089761 -114.6159668 126.6105957 C-114.74772674 122.77670261 -114.78037351 118.96098198 -114.75 115.125 C-114.74695862 114.45217987 -114.74391724 113.77935974 -114.74078369 113.08615112 C-114.66761416 102.09462452 -113.72530937 91.90606392 -110.3125 81.4375 C-109.99901611 80.43323975 -109.99901611 80.43323975 -109.67919922 79.40869141 C-104.82427119 64.17476368 -97.16449091 50.22208388 -86.3125 38.4375 C-85.83296875 37.91559082 -85.3534375 37.39368164 -84.859375 36.85595703 C-62.73749794 13.05119728 -32.58282256 -0.25799256 0 0 Z " fill="#ECA841" transform="translate(114.3125,-0.4375)"/>
<path d="M0 0 C0.99 0.66 1.98 1.32 3 2 C3.26653946 4.9795099 3.34767784 7.7488582 3.29296875 10.7265625 C3.28872391 11.58937836 3.28447906 12.45219421 3.28010559 13.34115601 C3.26328392 16.10275197 3.22562598 18.86362383 3.1875 21.625 C3.17245764 23.49478114 3.15876846 25.3645737 3.14648438 27.234375 C3.11336906 31.82319658 3.06156339 36.41147544 3 41 C3.72082764 41.05768555 4.44165527 41.11537109 5.18432617 41.17480469 C25.68357309 42.90863151 46.32679836 49.02384489 60.8046875 64.31640625 C67.90416272 72.99494624 71.37049634 82.28154705 71.25 93.4375 C71.25773438 94.14970703 71.26546875 94.86191406 71.2734375 95.59570312 C71.22727574 108.30172629 66.10233902 118.56607144 57.44140625 127.68359375 C49.96715953 134.77515904 41.42374359 139.01350045 32 143 C31.30261719 143.30808594 30.60523438 143.61617187 29.88671875 143.93359375 C21.42949786 147.42876213 12.12136018 149.24401091 3 149 C3.14183696 150.75032844 3.28863429 152.50025534 3.4375 154.25 C3.55931641 155.71179688 3.55931641 155.71179688 3.68359375 157.203125 C3.95074584 159.56461753 4.35371968 161.71901065 5 164 C10.04721166 165.2073722 15.12974425 165.299444 20.29296875 165.4296875 C25.5091337 165.66368368 25.5091337 165.66368368 27.97265625 167.3515625 C29.58221181 169.93419537 29.30881721 172.03535481 29 175 C28.34 175.99 27.68 176.98 27 178 C24.2353343 178.30219146 21.69360511 178.40939717 18.92602539 178.38818359 C18.09174515 178.39344055 17.2574649 178.39869751 16.39790344 178.40411377 C13.63096575 178.41735316 10.86460013 178.40856111 8.09765625 178.3984375 C6.17955922 178.4004573 4.26146293 178.40336794 2.34336853 178.40713501 C-1.68091121 178.41156386 -5.70499146 178.40511002 -9.72924805 178.39111328 C-14.89239629 178.37403259 -20.05507636 178.38385198 -25.21820736 178.40183067 C-29.18070513 178.4126632 -33.14309164 178.40922441 -37.10559273 178.4014473 C-39.00942604 178.39944322 -40.91326939 178.40191181 -42.81709099 178.40888596 C-45.4772103 178.41649044 -48.13656835 178.40491002 -50.79663086 178.38818359 C-51.58686646 178.39425629 -52.37710205 178.40032898 -53.19128418 178.40658569 C-58.46332049 178.34505767 -58.46332049 178.34505767 -61.02442932 176.69839478 C-62.71623302 173.75309248 -61.7486525 171.16737597 -61 168 C-58.01920966 165.01920966 -54.6293545 165.61307978 -50.625 165.5 C-43.96850045 165.54277711 -43.96850045 165.54277711 -38 163 C-36.64908472 160.29816945 -36.66141942 157.88191794 -36.4375 154.875 C-36.31181641 153.23144531 -36.31181641 153.23144531 -36.18359375 151.5546875 C-36.12300781 150.71164063 -36.06242187 149.86859375 -36 149 C-36.69222656 148.97421875 -37.38445312 148.9484375 -38.09765625 148.921875 C-57.92944282 147.77220621 -78.05396878 139.92550539 -92.2734375 125.73046875 C-102.4866904 113.9795328 -104.25960664 101.37596138 -103.24365234 86.33300781 C-102.72987674 81.41352917 -101.37436825 77.31232613 -99 73 C-98.57589844 72.21753906 -98.15179688 71.43507813 -97.71484375 70.62890625 C-88.34597605 55.15331142 -71.50228544 47.72515963 -54.6875 43.1875 C-49.98839768 42.07668962 -45.81265247 41.72234697 -41 42 C-41 46.95 -41 51.9 -41 57 C-42.794375 57.495 -44.58875 57.99 -46.4375 58.5 C-53.55541692 60.90345247 -59.33742921 64.29461475 -63.11914062 70.9777832 C-66.61672497 78.4909112 -66.5973853 85.76930787 -66.5 93.9375 C-66.51546875 95.23107422 -66.5309375 96.52464844 -66.546875 97.85742188 C-66.50923695 107.14931451 -65.11833562 114.87702005 -60.25 122.875 C-45.90334497 136.42461863 -24.79822558 135.68925883 -6.35449219 135.18798828 C5.34494065 134.53234321 19.12375413 132.00784998 27.3125 122.9375 C27.94800781 122.26589844 28.58351562 121.59429687 29.23828125 120.90234375 C34.38700064 112.42008542 34.5467834 102.72821163 34.5625 93.0625 C34.59923828 91.87720703 34.63597656 90.69191406 34.67382812 89.47070312 C34.71981493 80.15582049 32.52944615 72.38562195 26.43847656 65.14331055 C19.91021814 59.48251312 10.87491416 57.77938147 3 55 C3 79.42 3 103.84 3 129 C-4.42971476 130.35085723 -10.79334272 131.31926611 -18.1875 131.25 C-19.02474609 131.25773438 -19.86199219 131.26546875 -20.72460938 131.2734375 C-21.55154297 131.27085937 -22.37847656 131.26828125 -23.23046875 131.265625 C-23.95645264 131.26336914 -24.68243652 131.26111328 -25.43041992 131.25878906 C-29.06478945 130.8927623 -32.46135945 129.90675739 -36 129 C-35.99777939 128.01044815 -35.99555878 127.0208963 -35.99327087 126.00135803 C-35.97285876 116.60303952 -35.95794179 107.20472559 -35.94818783 97.80638981 C-35.94300441 92.97646715 -35.93599095 88.14656262 -35.92456055 83.31665039 C-35.91356814 78.64171105 -35.90768912 73.96678897 -35.90512276 69.29183769 C-35.90329759 67.52238125 -35.89973483 65.75292558 -35.89426994 63.98347664 C-35.86799074 55.1088229 -35.94860036 46.26293401 -36.44360352 37.40014648 C-36.48245887 36.68143151 -36.52131422 35.96271654 -36.56134701 35.22222233 C-36.76209813 31.48637378 -36.76209813 31.48637378 -38 28 C-40.09149896 27.37600043 -40.09149896 27.37600043 -42.62109375 27 C-43.55630859 26.835 -44.49152344 26.67 -45.45507812 26.5 C-46.43927734 26.335 -47.42347656 26.17 -48.4375 26 C-50.37493104 25.67391036 -52.31121392 25.34090106 -54.24609375 25 C-55.10904053 24.855625 -55.9719873 24.71125 -56.86108398 24.5625 C-59 24 -59 24 -61 22 C-61.265625 20.125 -61.265625 20.125 -61.25 18 C-61.25773437 16.948125 -61.25773437 16.948125 -61.265625 15.875 C-61 14 -61 14 -59 12 C-56.15951589 11.45696627 -53.36208585 11.01268842 -50.5 10.625 C-37.14019272 8.65394327 -24.08003656 6.00057983 -11.30004883 1.57470703 C-7.40411585 0.26353117 -4.10728389 -0.39899329 0 0 Z " fill="#282827" transform="translate(132,22)"/>
<path d="M0 0 C2.62202981 3.93304472 2.25148527 7.26625069 2.1953125 11.82421875 C2.1924826 12.68561966 2.18965271 13.54702057 2.18673706 14.43452454 C2.17554237 17.18565769 2.15043921 19.93646525 2.125 22.6875 C2.11496927 24.55272967 2.10584359 26.41796445 2.09765625 28.28320312 C2.07560538 32.8555942 2.04108049 37.42774189 2 42 C3.06541016 42.09087891 3.06541016 42.09087891 4.15234375 42.18359375 C5.07144531 42.26738281 5.99054688 42.35117187 6.9375 42.4375 C7.85402344 42.51871094 8.77054687 42.59992187 9.71484375 42.68359375 C12 43 12 43 13 44 C15.34987262 44.23527773 17.70556039 44.41386417 20.0625 44.5625 C21.35285156 44.64628906 22.64320313 44.73007812 23.97265625 44.81640625 C25.47119141 44.90728516 25.47119141 44.90728516 27 45 C27 45.66 27 46.32 27 47 C27.67546875 47.18175781 28.3509375 47.36351562 29.046875 47.55078125 C30.38492188 47.92783203 30.38492188 47.92783203 31.75 48.3125 C32.63171875 48.55613281 33.5134375 48.79976562 34.421875 49.05078125 C37.06889385 50.02536546 38.80532444 51.25939524 41 53 C43.14733927 53.70514846 43.14733927 53.70514846 45 54 C45 54.66 45 55.32 45 56 C45.53625 56.268125 46.0725 56.53625 46.625 56.8125 C47.40875 57.204375 48.1925 57.59625 49 58 C50.5159375 58.7115625 50.5159375 58.7115625 52.0625 59.4375 C54.59496254 60.78455454 56.25058298 61.76463381 58 64 C58 64.66 58 65.32 58 66 C58.66 66.33 59.32 66.66 60 67 C60.625 69.5625 60.625 69.5625 61 72 C60.360625 71.34 59.72125 70.68 59.0625 70 C58.04221314 68.99944245 57.02130233 67.999521 56 67 C55.12214844 66.09314453 55.12214844 66.09314453 54.2265625 65.16796875 C42.38468796 53.66637796 26.36431248 48.52290928 10.4375 45.8125 C6.993125 45.214375 3.54875 44.61625 0 44 C-0.33 31.13 -0.66 18.26 -1 5 C-6.84760364 2.07619818 -15.44960598 5.90485398 -21.25 7.8125 C-28.49791624 10.09218061 -35.71856736 11.91424633 -43.1875 13.3125 C-44.03538086 13.47145752 -44.88326172 13.63041504 -45.75683594 13.79418945 C-49.84791915 14.52866245 -53.91532275 15.1210165 -58.05078125 15.54296875 C-61.76561344 15.55857012 -61.76561344 15.55857012 -63 17 C-63.07148199 18.35243917 -63.08399454 19.70834367 -63.0625 21.0625 C-63.041875 22.361875 -63.02125 23.66125 -63 25 C-57.59267286 26.9809862 -52.23620215 27.90957154 -46.5703125 28.76757812 C-44.69537477 29.08533443 -42.843917 29.53488641 -41 30 C-34.32649873 40.01025191 -37.84887517 61.62148229 -37.86962891 73.29785156 C-37.87493848 76.83402906 -37.86968023 80.3700766 -37.86328125 83.90625 C-37.85910209 99.956746 -38.29135811 115.96562283 -39 132 C-32.63665833 132.84693851 -32.63665833 132.84693851 -26.23046875 133.1328125 C-25.40353516 133.13410156 -24.57660156 133.13539063 -23.72460938 133.13671875 C-22.88736328 133.13285156 -22.05011719 133.12898437 -21.1875 133.125 C-20.36185547 133.12886719 -19.53621094 133.13273438 -18.68554688 133.13671875 C-12.35196573 133.12689163 -6.36600288 132.57872753 0 132 C0 107.58 0 83.16 0 58 C22.30693185 63.57673296 22.30693185 63.57673296 29.1159668 74.84716797 C32.60648261 81.75473263 32.56331911 88.25279724 32.4375 95.875 C32.44458984 97.07769531 32.45167969 98.28039062 32.45898438 99.51953125 C32.39028745 109.25335732 31.83844778 119.06336366 24.8125 126.4375 C24.09707031 127.21996094 23.38164062 128.00242188 22.64453125 128.80859375 C7.33540767 141.49458833 -16.93439813 140.4809598 -35.51074219 138.76855469 C-46.0624182 137.44315553 -56.52323884 133.82451749 -64 126 C-69.41935961 116.9579163 -70.23399225 109.87466065 -70.29516602 99.43017578 C-70.3066323 98.07069445 -70.32699887 96.71125622 -70.35668945 95.35205078 C-70.57403983 85.38307536 -70.14308213 77.1224842 -63.703125 69.16015625 C-57.45365351 63.81626104 -52.5179146 60 -44 60 C-44 55.05 -44 50.1 -44 45 C-63.72064729 48.24175024 -83.32731633 53.35343871 -96.87109375 69.1875 C-98.4498944 71.39230889 -99.7492932 73.59510396 -101 76 C-101.41121094 76.75023438 -101.82242188 77.50046875 -102.24609375 78.2734375 C-106.68492764 88.01122533 -107.09306769 101.92968004 -103.87109375 112.140625 C-103.01272196 114.32201428 -102.09511611 116.48200424 -101.09375 118.6015625 C-100 121 -100 121 -100 124 C-102.38671875 123.32421875 -102.38671875 123.32421875 -105 122 C-110.25146397 111.76591834 -110.32475616 92.7871608 -106.9453125 81.9921875 C-105.78175214 79.19000367 -104.52823435 76.61652245 -103 74 C-102.32701751 72.66984332 -101.65804286 71.33761049 -101 70 C-100.34 70 -99.68 70 -99 70 C-99 68.68 -99 67.36 -99 66 C-97.515 65.505 -97.515 65.505 -96 65 C-95.34 64.01 -94.68 63.02 -94 62 C-93.01 62 -92.02 62 -91 62 C-90.67 60.68 -90.34 59.36 -90 58 C-87.69 57.34 -85.38 56.68 -83 56 C-83 55.34 -83 54.68 -83 54 C-80.525 53.505 -80.525 53.505 -78 53 C-77.67 52.01 -77.34 51.02 -77 50 C-73.89322498 47.92881666 -72.23990206 47.55461511 -68.625 47 C-64.79363875 46.408936 -61.56736947 45.50948914 -58 44 C-56.32096155 43.41272461 -54.63319919 42.84977718 -52.9375 42.3125 C-52.10089844 42.04050781 -51.26429687 41.76851562 -50.40234375 41.48828125 C-47.82824422 40.96509029 -46.46590003 41.20985139 -44 42 C-43.34 42 -42.68 42 -42 42 C-42 39.69 -42 37.38 -42 35 C-43.485 34.505 -43.485 34.505 -45 34 C-45 33.01 -45 32.02 -45 31 C-46.299375 30.855625 -47.59875 30.71125 -48.9375 30.5625 C-50.15759766 30.42328125 -50.15759766 30.42328125 -51.40234375 30.28125 C-53.12169943 30.0950942 -54.8432505 29.92812477 -56.56640625 29.78125 C-57.36949219 29.7090625 -58.17257813 29.636875 -59 29.5625 C-59.7425 29.50191406 -60.485 29.44132812 -61.25 29.37890625 C-62.11625 29.19134766 -62.11625 29.19134766 -63 29 C-63.495 28.01 -63.495 28.01 -64 27 C-64.99 26.67 -65.98 26.34 -67 26 C-67.44552201 21.45567555 -67.58662665 18.08300305 -65.375 14 C-60.7614445 11.26604118 -56.66950687 11.34668171 -51.375 11.23828125 C-47.9160228 10.99407105 -44.5536389 10.5536389 -42 8 C-40.31391034 7.92794489 -38.62499341 7.91613932 -36.9375 7.9375 C-36.01839844 7.94652344 -35.09929687 7.95554687 -34.15234375 7.96484375 C-33.44207031 7.97644531 -32.73179688 7.98804688 -32 8 C-32 7.34 -32 6.68 -32 6 C-27.71 6 -23.42 6 -19 6 C-19 5.34 -19 4.68 -19 4 C-6.18086608 -2.00460521 -6.18086608 -2.00460521 0 0 Z " fill="#ECA843" transform="translate(135,19)"/>
<path d="M0 0 C-0.00333092 1.32091644 -0.00333092 1.32091644 -0.00672913 2.66851807 C-0.02676563 10.96717612 -0.04199131 19.26582604 -0.05181217 27.56450272 C-0.05703089 31.83093548 -0.06411023 36.09734827 -0.07543945 40.36376953 C-0.0863042 44.48103787 -0.09228446 48.59828698 -0.09487724 52.71556854 C-0.09672501 54.28643852 -0.10033321 55.85730745 -0.10573006 57.42816925 C-0.11298806 59.62824275 -0.11398893 61.82823677 -0.11352539 64.02832031 C-0.11685631 65.9069577 -0.11685631 65.9069577 -0.12025452 67.82354736 C-0.02163406 70.42854885 0.22209239 72.53125168 1 75 C-6.74205354 75.6461683 -12.75700749 75.82082504 -19.0625 70.90625 C-27.48834118 62.61630948 -29.26715212 53.72918169 -29.37109375 42.20898438 C-29.37093262 41.54729248 -29.37077148 40.88560059 -29.37060547 40.20385742 C-29.37496666 38.20279541 -29.4119687 36.2018919 -29.44921875 34.20117188 C-29.47694241 24.95533177 -28.5428584 17.6846636 -22.87890625 10.1953125 C-16.48859056 4.4839005 -8.87561286 0 0 0 Z " fill="#ECA842" transform="translate(94,78)"/>
<path d="M0 0 C2.62202981 3.93304472 2.25148527 7.26625069 2.1953125 11.82421875 C2.1924826 12.68561966 2.18965271 13.54702057 2.18673706 14.43452454 C2.17554237 17.18565769 2.15043921 19.93646525 2.125 22.6875 C2.11496927 24.55272967 2.10584359 26.41796445 2.09765625 28.28320312 C2.07560538 32.8555942 2.04108049 37.42774189 2 42 C3.06541016 42.09087891 3.06541016 42.09087891 4.15234375 42.18359375 C5.07144531 42.26738281 5.99054688 42.35117187 6.9375 42.4375 C7.85402344 42.51871094 8.77054687 42.59992187 9.71484375 42.68359375 C12 43 12 43 13 44 C15.34987262 44.23527773 17.70556039 44.41386417 20.0625 44.5625 C21.35285156 44.64628906 22.64320313 44.73007812 23.97265625 44.81640625 C25.47119141 44.90728516 25.47119141 44.90728516 27 45 C27 45.66 27 46.32 27 47 C27.67546875 47.18175781 28.3509375 47.36351562 29.046875 47.55078125 C30.38492188 47.92783203 30.38492188 47.92783203 31.75 48.3125 C32.63171875 48.55613281 33.5134375 48.79976562 34.421875 49.05078125 C37.06889385 50.02536546 38.80532444 51.25939524 41 53 C43.14733927 53.70514846 43.14733927 53.70514846 45 54 C45 54.66 45 55.32 45 56 C45.53625 56.268125 46.0725 56.53625 46.625 56.8125 C47.40875 57.204375 48.1925 57.59625 49 58 C50.5159375 58.7115625 50.5159375 58.7115625 52.0625 59.4375 C54.59496254 60.78455454 56.25058298 61.76463381 58 64 C58 64.66 58 65.32 58 66 C58.66 66.33 59.32 66.66 60 67 C60.625 69.5625 60.625 69.5625 61 72 C60.360625 71.34 59.72125 70.68 59.0625 70 C58.04221314 68.99944245 57.02130233 67.999521 56 67 C55.12214844 66.09314453 55.12214844 66.09314453 54.2265625 65.16796875 C42.38468796 53.66637796 26.36431248 48.52290928 10.4375 45.8125 C6.993125 45.214375 3.54875 44.61625 0 44 C-0.33 31.13 -0.66 18.26 -1 5 C-6.84760364 2.07619818 -15.44960598 5.90485398 -21.25 7.8125 C-28.49791624 10.09218061 -35.71856736 11.91424633 -43.1875 13.3125 C-44.03538086 13.47145752 -44.88326172 13.63041504 -45.75683594 13.79418945 C-49.84791915 14.52866245 -53.91532275 15.1210165 -58.05078125 15.54296875 C-61.76561344 15.55857012 -61.76561344 15.55857012 -63 17 C-63.07148199 18.35243917 -63.08399454 19.70834367 -63.0625 21.0625 C-63.041875 22.361875 -63.02125 23.66125 -63 25 C-57.59267286 26.9809862 -52.23620215 27.90957154 -46.5703125 28.76757812 C-44.69537477 29.08533443 -42.843917 29.53488641 -41 30 C-34.32649873 40.01025191 -37.84887517 61.62148229 -37.86962891 73.29785156 C-37.87493848 76.83402906 -37.86968023 80.3700766 -37.86328125 83.90625 C-37.85910209 99.956746 -38.29135811 115.96562283 -39 132 C-32.82062297 132.91114284 -26.83452139 133.13262362 -20.59375 133.09765625 C-19.14579041 133.09553383 -19.14579041 133.09553383 -17.6685791 133.09336853 C-14.61235335 133.0878108 -11.55620327 133.0752663 -8.5 133.0625 C-6.41666773 133.05747953 -4.3333343 133.05291758 -2.25 133.04882812 C2.83336209 133.03785524 7.91666826 133.02062011 13 133 C13 132.01 13 131.02 13 130 C13.94875 129.9175 14.8975 129.835 15.875 129.75 C16.90625 129.5025 17.9375 129.255 19 129 C20.1500831 127.03327085 20.1500831 127.03327085 21 125 C21.99 124.7834375 21.99 124.7834375 23 124.5625 C23.66 124.376875 24.32 124.19125 25 124 C26.29660434 121.50965614 26.29660434 121.50965614 27 119 C27.33 119.99 27.66 120.98 28 122 C26.77734375 123.90234375 26.77734375 123.90234375 24.9375 125.9375 C24.34839844 126.60652344 23.75929687 127.27554688 23.15234375 127.96484375 C18.38287685 132.47463006 13.84057185 134.60880071 7.5 136.1875 C5.59734375 136.67283203 5.59734375 136.67283203 3.65625 137.16796875 C-12.33585276 140.80719726 -32.2727416 141.29913807 -48 136 C-48.99 135.01 -48.99 135.01 -50 134 C-46.7 134 -43.4 134 -40 134 C-40.66 132.68 -41.32 131.36 -42 130 C-42.24291992 127.44262695 -42.24291992 127.44262695 -42.23046875 124.48828125 C-42.22917969 123.35664551 -42.22789063 122.22500977 -42.2265625 121.05908203 C-42.21367188 119.82270996 -42.20078125 118.58633789 -42.1875 117.3125 C-42.18105469 116.02714355 -42.17460938 114.74178711 -42.16796875 113.41748047 C-42.05012991 95.27517469 -41.50636202 77.13476311 -41 59 C-42.485 59.495 -42.485 59.495 -44 60 C-44 55.05 -44 50.1 -44 45 C-63.72064729 48.24175024 -83.32731633 53.35343871 -96.87109375 69.1875 C-98.4498944 71.39230889 -99.7492932 73.59510396 -101 76 C-101.41121094 76.75023438 -101.82242188 77.50046875 -102.24609375 78.2734375 C-106.68492764 88.01122533 -107.09306769 101.92968004 -103.87109375 112.140625 C-103.01272196 114.32201428 -102.09511611 116.48200424 -101.09375 118.6015625 C-100 121 -100 121 -100 124 C-102.38671875 123.32421875 -102.38671875 123.32421875 -105 122 C-110.25146397 111.76591834 -110.32475616 92.7871608 -106.9453125 81.9921875 C-105.78175214 79.19000367 -104.52823435 76.61652245 -103 74 C-102.32701751 72.66984332 -101.65804286 71.33761049 -101 70 C-100.34 70 -99.68 70 -99 70 C-99 68.68 -99 67.36 -99 66 C-97.515 65.505 -97.515 65.505 -96 65 C-95.34 64.01 -94.68 63.02 -94 62 C-93.01 62 -92.02 62 -91 62 C-90.67 60.68 -90.34 59.36 -90 58 C-87.69 57.34 -85.38 56.68 -83 56 C-83 55.34 -83 54.68 -83 54 C-80.525 53.505 -80.525 53.505 -78 53 C-77.67 52.01 -77.34 51.02 -77 50 C-73.89322498 47.92881666 -72.23990206 47.55461511 -68.625 47 C-64.79363875 46.408936 -61.56736947 45.50948914 -58 44 C-56.32096155 43.41272461 -54.63319919 42.84977718 -52.9375 42.3125 C-52.10089844 42.04050781 -51.26429687 41.76851562 -50.40234375 41.48828125 C-47.82824422 40.96509029 -46.46590003 41.20985139 -44 42 C-43.34 42 -42.68 42 -42 42 C-42 39.69 -42 37.38 -42 35 C-43.485 34.505 -43.485 34.505 -45 34 C-45 33.01 -45 32.02 -45 31 C-46.299375 30.855625 -47.59875 30.71125 -48.9375 30.5625 C-50.15759766 30.42328125 -50.15759766 30.42328125 -51.40234375 30.28125 C-53.12169943 30.0950942 -54.8432505 29.92812477 -56.56640625 29.78125 C-57.36949219 29.7090625 -58.17257813 29.636875 -59 29.5625 C-59.7425 29.50191406 -60.485 29.44132812 -61.25 29.37890625 C-62.11625 29.19134766 -62.11625 29.19134766 -63 29 C-63.495 28.01 -63.495 28.01 -64 27 C-64.99 26.67 -65.98 26.34 -67 26 C-67.44552201 21.45567555 -67.58662665 18.08300305 -65.375 14 C-60.7614445 11.26604118 -56.66950687 11.34668171 -51.375 11.23828125 C-47.9160228 10.99407105 -44.5536389 10.5536389 -42 8 C-40.31391034 7.92794489 -38.62499341 7.91613932 -36.9375 7.9375 C-36.01839844 7.94652344 -35.09929687 7.95554687 -34.15234375 7.96484375 C-33.44207031 7.97644531 -32.73179688 7.98804688 -32 8 C-32 7.34 -32 6.68 -32 6 C-27.71 6 -23.42 6 -19 6 C-19 5.34 -19 4.68 -19 4 C-6.18086608 -2.00460521 -6.18086608 -2.00460521 0 0 Z " fill="#D7A865" transform="translate(135,19)"/>
<path d="M0 0 C0.99 0 1.98 0 3 0 C3 1.32 3 2.64 3 4 C2.34 4 1.68 4 1 4 C1.66 5.65 2.32 7.3 3 9 C2.01 9.495 2.01 9.495 1 10 C0.71125 10.78375 0.4225 11.5675 0.125 12.375 C-1.20943013 15.48867031 -2.01050955 16.42658398 -5 18 C-11.31068039 19.2178506 -17.59057399 19.1060383 -24 19 C-23.67 20.98 -23.34 22.96 -23 25 C-21.08468099 25.20079957 -19.16759037 25.38469526 -17.25 25.5625 C-16.18265625 25.66691406 -15.1153125 25.77132812 -14.015625 25.87890625 C-10.96890015 26.05425732 -8.08105644 25.84635435 -5.046875 25.53515625 C4.19800536 24.68350229 13.47846353 24.85135909 22.75390625 24.86962891 C25.99223513 24.87498715 29.23042534 24.86965977 32.46875 24.86328125 C52.5060549 24.85749948 52.5060549 24.85749948 62 26 C61.65772428 23.02934491 61.65772428 23.02934491 61 20 C57.828262 18.414131 54.36486178 18.62133555 50.875 18.4375 C50.12089844 18.39431641 49.36679688 18.35113281 48.58984375 18.30664062 C46.72678112 18.2005168 44.86341476 18.09974999 43 18 C43 17.67 43 17.34 43 17 C45.93804996 16.91913624 48.87388075 16.8595717 51.8125 16.8125 C52.64587891 16.78736328 53.47925781 16.76222656 54.33789062 16.73632812 C55.54155273 16.72182617 55.54155273 16.72182617 56.76953125 16.70703125 C57.87711792 16.68346558 57.87711792 16.68346558 59.00708008 16.65942383 C61.58145508 17.09936663 62.44574514 17.93300127 64 20 C64.42478586 24.07794425 64.31282587 25.53076119 62 29 C59.2353343 29.30219146 56.69360511 29.40939717 53.92602539 29.38818359 C53.09174515 29.39344055 52.2574649 29.39869751 51.39790344 29.40411377 C48.63096575 29.41735316 45.86460013 29.40856111 43.09765625 29.3984375 C41.17955922 29.4004573 39.26146293 29.40336794 37.34336853 29.40713501 C33.31908879 29.41156386 29.29500854 29.40511002 25.27075195 29.39111328 C20.10760371 29.37403259 14.94492364 29.38385198 9.78179264 29.40183067 C5.81929487 29.4126632 1.85690836 29.40922441 -2.10559273 29.4014473 C-4.00942604 29.39944322 -5.91326939 29.40191181 -7.81709099 29.40888596 C-10.4772103 29.41649044 -13.13656835 29.40491002 -15.79663086 29.38818359 C-16.98198425 29.39729263 -16.98198425 29.39729263 -18.19128418 29.40658569 C-23.46332049 29.34505767 -23.46332049 29.34505767 -26.02442932 27.69839478 C-27.71623302 24.75309248 -26.7486525 22.16737597 -26 19 C-23.01920966 16.01920966 -19.6293545 16.61307978 -15.625 16.5 C-8.9419807 16.57883571 -8.9419807 16.57883571 -3 14 C-1.29677713 9.42819125 -0.59140502 4.82980764 0 0 Z " fill="#32210D" transform="translate(97,171)"/>
<path d="M0 0 C0.66 0 1.32 0 2 0 C2.08133791 1.91595968 2.13934367 3.83291932 2.1875 5.75 C2.23970703 7.35101563 2.23970703 7.35101563 2.29296875 8.984375 C1.96625336 12.34736544 1.36910987 13.63641253 -1 16 C-5.51012963 17.50337654 -10.20375335 17.32046251 -14.92773438 17.4296875 C-16.95898943 17.51381195 -18.98273458 17.7475832 -21 18 C-23.14915785 21.22373677 -23.38286803 22.26703674 -23 26 C-20.44069538 28.55930462 -18.78195224 28.23563634 -15.29348755 28.24884033 C-14.49651459 28.24164978 -13.69954163 28.23445923 -12.87841797 28.22705078 C-12.03931885 28.22734283 -11.20021973 28.22763489 -10.33569336 28.22793579 C-7.55442056 28.22653933 -4.77341366 28.21096335 -1.9921875 28.1953125 C-0.06690619 28.19158349 1.85837701 28.18873599 3.78366089 28.18673706 C8.8570477 28.17909176 13.93032044 28.1594356 19.00366211 28.1373291 C24.17820696 28.11688995 29.35277019 28.10773948 34.52734375 28.09765625 C44.68494602 28.07619054 54.84246353 28.04204381 65 28 C66.38125018 25.23749964 66.19079306 23.05268901 66 20 C63.1150419 17.1150419 60.0601153 17.61724748 56.1875 17.5 C51.44927384 17.35420843 47.3365275 17.1128857 43 15 C43 14.67 43 14.34 43 14 C46.04263267 13.89154973 49.08136204 13.81247937 52.125 13.75 C52.9809375 13.71648437 53.836875 13.68296875 54.71875 13.6484375 C60.25839744 13.56321215 63.76935614 14.02264712 68 18 C68.65625 20.25390625 68.65625 20.25390625 68.5 22.5625 C68.4690625 23.32691406 68.438125 24.09132812 68.40625 24.87890625 C68 27 68 27 66 30 C63.09929946 30.28613439 60.41303409 30.37808727 57.51123047 30.34057617 C56.19406036 30.34123329 56.19406036 30.34123329 54.85028076 30.34190369 C51.93902584 30.3398086 49.02834218 30.31644375 46.1171875 30.29296875 C44.10222692 30.28737536 42.08726226 30.28310405 40.07229614 30.28010559 C34.76211332 30.26863663 29.45217563 30.23915182 24.14208984 30.20599365 C18.72627072 30.17533693 13.31041208 30.16160967 7.89453125 30.14648438 C-2.73708703 30.11428408 -13.36852315 30.06306299 -24 30 C-24 29.34 -24 28.68 -24 28 C-24.66 28 -25.32 28 -26 28 C-26.10815225 26.23050905 -26.18566083 24.45912513 -26.25 22.6875 C-26.31960937 21.20830078 -26.31960937 21.20830078 -26.390625 19.69921875 C-26 17 -26 17 -24.28710938 15.34960938 C-21.60585633 13.76741821 -20.10564191 13.65050655 -17.015625 13.70703125 C-16.08105469 13.71669922 -15.14648438 13.72636719 -14.18359375 13.73632812 C-13.21550781 13.76146484 -12.24742188 13.78660156 -11.25 13.8125 C-9.77466797 13.83280273 -9.77466797 13.83280273 -8.26953125 13.85351562 C-5.84611923 13.88880803 -3.42298951 13.94261341 -1 14 C-0.67 9.38 -0.34 4.76 0 0 Z " fill="#D5A762" transform="translate(94,171)"/>
<path d="M0 0 C0.99 0 1.98 0 3 0 C3 24.42 3 48.84 3 74 C-0.1184325 75.0394775 -2.27475586 75.11494838 -5.54296875 75.09765625 C-6.61611328 75.09443359 -7.68925781 75.09121094 -8.79492188 75.08789062 C-9.91447266 75.07951172 -11.03402344 75.07113281 -12.1875 75.0625 C-13.31865234 75.05798828 -14.44980469 75.05347656 -15.61523438 75.04882812 C-18.41020927 75.03703498 -21.2050782 75.0205765 -24 75 C-24 74.01 -24 73.02 -24 72 C-16.08 72 -8.16 72 0 72 C0 48.24 0 24.48 0 0 Z " fill="#40280A" transform="translate(132,77)"/>
<path d="M0 0 C1.46373047 0.02707031 1.46373047 0.02707031 2.95703125 0.0546875 C3.69308594 0.07789063 4.42914063 0.10109375 5.1875 0.125 C5.1875 0.455 5.1875 0.785 5.1875 1.125 C4.64448242 1.25028076 4.10146484 1.37556152 3.54199219 1.50463867 C-11.37284848 4.98403178 -24.52515837 8.58203924 -36.8125 18.125 C-37.52277344 18.62386719 -38.23304687 19.12273437 -38.96484375 19.63671875 C-46.14246066 25.10603528 -50.98234813 34.32003924 -52.8125 43.125 C-53.79746553 54.23516187 -53.72186838 64.5335036 -48.90625 74.7265625 C-47.8125 77.125 -47.8125 77.125 -47.8125 80.125 C-50.19921875 79.44921875 -50.19921875 79.44921875 -52.8125 78.125 C-58.06396397 67.89091834 -58.13725616 48.9121608 -54.7578125 38.1171875 C-53.59425214 35.31500367 -52.34073435 32.74152245 -50.8125 30.125 C-50.13951751 28.79484332 -49.47054286 27.46261049 -48.8125 26.125 C-48.1525 26.125 -47.4925 26.125 -46.8125 26.125 C-46.8125 24.805 -46.8125 23.485 -46.8125 22.125 C-45.8225 21.795 -44.8325 21.465 -43.8125 21.125 C-43.1525 20.135 -42.4925 19.145 -41.8125 18.125 C-40.8225 18.125 -39.8325 18.125 -38.8125 18.125 C-38.4825 16.805 -38.1525 15.485 -37.8125 14.125 C-35.5025 13.465 -33.1925 12.805 -30.8125 12.125 C-30.8125 11.465 -30.8125 10.805 -30.8125 10.125 C-29.1625 9.795 -27.5125 9.465 -25.8125 9.125 C-25.4825 8.135 -25.1525 7.145 -24.8125 6.125 C-21.70572498 4.05381666 -20.05240206 3.67961511 -16.4375 3.125 C-13.52217917 2.67525354 -11.04517558 2.2236223 -8.32421875 1.0703125 C-5.39130374 -0.03352177 -3.12157697 -0.07521872 0 0 Z " fill="#D7AC6E" transform="translate(82.8125,62.875)"/>
<path d="M0 0 C22.26962778 5.56740694 22.26962778 5.56740694 29.11816406 16.84057617 C32.65020151 23.80091644 32.52866815 30.38313659 32.375 38.0625 C32.37371094 39.29033203 32.37242187 40.51816406 32.37109375 41.78320312 C32.3090447 48.18459662 31.90999098 53.88038891 30 60 C29.67 60 29.34 60 29 60 C29.01047363 58.97116699 29.02094727 57.94233398 29.03173828 56.88232422 C29.06807599 53.04691072 29.09095038 49.2115123 29.10986328 45.37597656 C29.11988957 43.71937497 29.13351406 42.06279093 29.15087891 40.40625 C29.17527621 38.01818495 29.18651694 35.63035492 29.1953125 33.2421875 C29.20563507 32.50757294 29.21595764 31.77295837 29.22659302 31.01608276 C29.22754014 26.6255219 28.70721978 23.05340349 27 19 C26.46375 18.46375 25.9275 17.9275 25.375 17.375 C24.92125 16.92125 24.4675 16.4675 24 16 C24 14.68 24 13.36 24 12 C23.113125 11.9175 22.22625 11.835 21.3125 11.75 C17.55902463 10.90015652 15.74031954 9.65972191 13 7 C13 6.34 13 5.68 13 5 C12.113125 5.020625 11.22625 5.04125 10.3125 5.0625 C7 5 7 5 2 4 C1.67 26.44 1.34 48.88 1 72 C0.67 72 0.34 72 0 72 C0 48.24 0 24.48 0 0 Z " fill="#DDAC68" transform="translate(135,77)"/>
<path d="M0 0 C0 0.33 0 0.66 0 1 C-8.91 1.99 -8.91 1.99 -18 3 C-17.67 5.31 -17.34 7.62 -17 10 C-10.33042073 11.64006048 -3.84817102 12.51358785 3 13 C3.33 13.99 3.66 14.98 4 16 C4.66 16.33 5.32 16.66 6 17 C6 49.01 6 81.02 6 114 C5.67 114 5.34 114 5 114 C4.98969254 113.06056046 4.97938507 112.12112091 4.96876526 111.1532135 C4.87028208 102.22575615 4.76748978 93.29835701 4.66066074 84.37099552 C4.60589506 79.7832399 4.55255866 75.19547764 4.50268555 70.60766602 C4.45434636 66.16610076 4.40199587 61.72459804 4.34705925 57.28310966 C4.32694531 55.60298697 4.30818865 53.92284736 4.29092598 52.24269295 C4.20160085 43.63692434 4.0177196 35.04895594 3.54272461 26.45483398 C3.50469254 25.73282586 3.46666048 25.01081774 3.42747593 24.26693058 C3.23817612 20.50820617 3.23817612 20.50820617 2 17 C-0.09149896 16.37600043 -0.09149896 16.37600043 -2.62109375 16 C-3.55630859 15.835 -4.49152344 15.67 -5.45507812 15.5 C-6.43927734 15.335 -7.42347656 15.17 -8.4375 15 C-10.37493104 14.67391036 -12.31121392 14.34090106 -14.24609375 14 C-15.10904053 13.855625 -15.9719873 13.71125 -16.86108398 13.5625 C-19 13 -19 13 -21 11 C-21.265625 9.125 -21.265625 9.125 -21.25 7 C-21.25515625 6.29875 -21.2603125 5.5975 -21.265625 4.875 C-21 3 -21 3 -19 1 C-15.91796875 0.33203125 -15.91796875 0.33203125 -12.1875 -0.1875 C-10.96417969 -0.36667969 -9.74085937 -0.54585937 -8.48046875 -0.73046875 C-5.33203735 -0.97428667 -3.0251646 -0.81247278 0 0 Z " fill="#301E0A" transform="translate(92,33)"/>
<path d="M0 0 C5.625 -0.25 5.625 -0.25 9 2 C9.26653946 4.9795099 9.34767784 7.7488582 9.29296875 10.7265625 C9.28872391 11.58937836 9.28447906 12.45219421 9.28010559 13.34115601 C9.26328392 16.10275197 9.22562598 18.86362383 9.1875 21.625 C9.17245764 23.49478114 9.15876846 25.3645737 9.14648438 27.234375 C9.11336906 31.82319658 9.06156339 36.41147544 9 41 C9.72082764 41.05768555 10.44165527 41.11537109 11.18432617 41.17480469 C23.83516795 42.2448132 35.18666637 45.51908035 47 50 C47 50.33 47 50.66 47 51 C40.25 51.125 40.25 51.125 38 50 C38 49.34 38 48.68 38 48 C35.36 48 32.72 48 30 48 C30 47.34 30 46.68 30 46 C28.0509375 46.061875 28.0509375 46.061875 26.0625 46.125 C19.42162549 46.125 13.03498399 44.82889875 7 42 C6 41 6 41 5.88647461 37.30639648 C5.88663376 35.66128708 5.89233012 34.01617269 5.90234375 32.37109375 C5.9037587 31.50686295 5.90517365 30.64263214 5.90663147 29.75221252 C5.91224761 26.98060708 5.92480281 24.2090812 5.9375 21.4375 C5.94251292 19.5631522 5.94707619 17.68880315 5.95117188 15.81445312 C5.96222228 11.20960456 5.9794977 6.60481579 6 2 C4.02 2 2.04 2 0 2 C0 1.34 0 0.68 0 0 Z " fill="#3B280E" transform="translate(126,22)"/>
<path d="M0 0 C0.99 0 1.98 0 3 0 C3 1.32 3 2.64 3 4 C2.34 4 1.68 4 1 4 C1.66 5.65 2.32 7.3 3 9 C2.01 9.495 2.01 9.495 1 10 C0.71125 10.78375 0.4225 11.5675 0.125 12.375 C-1.20943013 15.48867031 -2.01050955 16.42658398 -5 18 C-11.31068039 19.2178506 -17.59057399 19.1060383 -24 19 C-23.67 20.98 -23.34 22.96 -23 25 C-13.43411716 26.58472776 -4.20562273 27.32373493 5.4921875 27.4140625 C7.46011765 27.44311172 7.46011765 27.44311172 9.46780396 27.4727478 C12.90347645 27.52336344 16.33918743 27.56335913 19.77502441 27.60089111 C23.30193028 27.64138195 26.82868601 27.69226482 30.35546875 27.7421875 C37.23686858 27.8381071 44.11836563 27.9227712 51 28 C51 28.33 51 28.66 51 29 C41.27307263 29.06945668 31.54620409 29.12278917 21.8190794 29.15543652 C17.30255574 29.17110424 12.78620152 29.19236257 8.26977539 29.22631836 C3.91259403 29.25887255 -0.44442418 29.27684468 -4.80171776 29.28463173 C-6.46554318 29.29018235 -8.1293595 29.30102118 -9.79311562 29.31719017 C-12.12049404 29.33891251 -14.44719501 29.34196917 -16.7746582 29.34057617 C-17.46517776 29.351362 -18.15569733 29.36214783 -18.86714172 29.3732605 C-21.68215959 29.35498377 -23.5824077 29.27621712 -25.96330261 27.70137024 C-27.74902831 24.7707363 -26.75470797 22.19299526 -26 19 C-23.01920966 16.01920966 -19.6293545 16.61307978 -15.625 16.5 C-8.9419807 16.57883571 -8.9419807 16.57883571 -3 14 C-1.29677713 9.42819125 -0.59140502 4.82980764 0 0 Z " fill="#4B300D" transform="translate(97,171)"/>
<path d="M0 0 C5.6944025 7.13024038 7.36423304 14.73427993 7.375 23.6875 C7.37653076 24.38770264 7.37806152 25.08790527 7.37963867 25.80932617 C7.08544855 39.79404001 0.84474453 50.39125962 -9 60 C-13.64163823 64 -13.64163823 64 -16 64 C-16 63.01 -16 62.02 -16 61 C-14.515 60.505 -14.515 60.505 -13 60 C-12.67 59.34 -12.34 58.68 -12 58 C-10.576875 57.13375 -10.576875 57.13375 -9.125 56.25 C-5.69308942 53.77902438 -4.5794606 51.86090369 -3 48 C-2.01 48 -1.02 48 0 48 C-0.061875 46.80375 -0.12375 45.6075 -0.1875 44.375 C-0.34295554 41.36952619 -0.05558333 40.09555664 1.48828125 37.44140625 C3.66657518 32.48255106 3.43619759 27.91728952 3.375 22.5625 C3.38660156 21.55123047 3.39820313 20.53996094 3.41015625 19.49804688 C3.38655158 13.46705307 2.63212557 9.39655374 0 4 C0 2.68 0 1.36 0 0 Z " fill="#3B250D" transform="translate(196,92)"/>
<path d="M0 0 C0.99 0 1.98 0 3 0 C4.80230168 3.82989106 5.19622241 6.78121808 5 11 C5.66 11 6.32 11 7 11 C8.5665386 34.257073 8.5665386 34.257073 7 41 C6.34 41.66 5.68 42.32 5 43 C4.71125 44.155 4.4225 45.31 4.125 46.5 C3 50 3 50 0.9375 51.1875 C0.298125 51.455625 -0.34125 51.72375 -1 52 C-1.12117188 52.60328125 -1.24234375 53.2065625 -1.3671875 53.828125 C-2.21825422 56.74907002 -3.69730533 57.69787563 -6.0625 59.5625 C-8.26285066 61.23392629 -8.26285066 61.23392629 -10 63 C-10 63.99 -10 64.98 -10 66 C-14.77357872 68.71391278 -18.34388537 70.56561146 -24 70 C-21.95352903 68.43119502 -19.89989306 66.93481811 -17.73828125 65.52734375 C-6.85462168 58.39425286 1.79938539 49.23640733 4.60546875 36.18359375 C5.83644635 26.25045771 6.09150504 16.5679755 1.97265625 7.296875 C0.9471209 4.87512887 0.43579551 2.58724914 0 0 Z " fill="#DFAA5A" transform="translate(197,91)"/>
<path d="M0 0 C-2.49747023 1.27601331 -4.99777936 2.54586171 -7.5 3.8125 C-8.19609375 4.16892578 -8.8921875 4.52535156 -9.609375 4.89257812 C-16.58153481 8.41093655 -23.40140376 11.05509054 -31.0625 12.6875 C-32.78146484 13.06455078 -32.78146484 13.06455078 -34.53515625 13.44921875 C-38.08285891 14.01317148 -41.41408297 14.09592899 -45 14 C-44.85816304 15.75032844 -44.71136571 17.50025534 -44.5625 19.25 C-44.48128906 20.22453125 -44.40007812 21.1990625 -44.31640625 22.203125 C-44.04701347 24.58442415 -43.78359604 26.73743129 -43 29 C-42.34 29.33 -41.68 29.66 -41 30 C-42.65 29.67 -44.3 29.34 -46 29 C-48.0230476 24.06882148 -48.71869817 19.28454538 -48 14 C-44.42530375 10.42530375 -39.97105579 10.03082717 -35.0625 9.875 C-33.5465625 9.936875 -33.5465625 9.936875 -32 10 C-32 9.34 -32 8.68 -32 8 C-24.01144087 6.27336618 -16.02078543 4.57089116 -8 3 C-8 2.34 -8 1.68 -8 1 C-3.375 -1.125 -3.375 -1.125 0 0 Z " fill="#3A250D" transform="translate(180,157)"/>
<path d="M0 0 C-2.91494332 1.91293156 -5.72009978 3.30692833 -9 4.4375 C-14.62104202 6.49784435 -18.29464041 9.428856 -21.15234375 14.8203125 C-24.3436951 23.02664455 -24.83049023 32.6018135 -23.5 41.25 C-22.75648476 46.82636434 -22.9239761 52.38267822 -23 58 C-27.02028167 51.96957749 -26.2538141 45.49038301 -26.29516602 38.43017578 C-26.3066323 37.07069445 -26.32699887 35.71125622 -26.35668945 34.35205078 C-26.57403983 24.38307536 -26.14308213 16.1224842 -19.703125 8.16015625 C-7.43909134 -2.32676425 -7.43909134 -2.32676425 0 0 Z " fill="#DCA859" transform="translate(91,80)"/>
<path d="M0 0 C1.95486328 -0.02416992 1.95486328 -0.02416992 3.94921875 -0.04882812 C13.27979438 -0.0534518 21.70688387 1.17313767 30.75 3.3125 C30.75 3.6425 30.75 3.9725 30.75 4.3125 C28.4239143 4.69313221 26.08944736 5.02519945 23.75 5.3125 C23.255 4.8175 23.255 4.8175 22.75 4.3125 C13.578039 3.14072727 4.29391167 3.1298408 -4.9375 3.125 C-6.17822266 3.11275391 -7.41894531 3.10050781 -8.69726562 3.08789062 C-17.28946223 3.074245 -24.9855338 3.98871787 -33.1875 6.5 C-36.25 7.3125 -36.25 7.3125 -39.25 6.3125 C-37.31530224 5.67887879 -35.37703261 5.05616349 -33.4375 4.4375 C-32.35855469 4.08945313 -31.27960938 3.74140625 -30.16796875 3.3828125 C-20.13512274 0.50210744 -10.40632268 -0.0254309 0 0 Z " fill="#DDAF64" transform="translate(114.25,-0.3125)"/>
<path d="M0 0 C7.53249757 3.8400968 11.81113263 8.5027267 15.16430664 16.2331543 C16.82536972 21.73266581 16.4889355 27.36872306 16.375 33.0625 C16.37371094 34.29033203 16.37242187 35.51816406 16.37109375 36.78320312 C16.3090447 43.18459662 15.90999098 48.88038891 14 55 C13.67 55 13.34 55 13 55 C13.01047363 53.97116699 13.02094727 52.94233398 13.03173828 51.88232422 C13.06807599 48.04691072 13.09095038 44.2115123 13.10986328 40.37597656 C13.11988957 38.71937497 13.13351406 37.06279093 13.15087891 35.40625 C13.17527621 33.01818495 13.18651694 30.63035492 13.1953125 28.2421875 C13.20563507 27.50757294 13.21595764 26.77295837 13.22659302 26.01608276 C13.22754014 21.6255219 12.70721978 18.05340349 11 14 C10.46375 13.46375 9.9275 12.9275 9.375 12.375 C8.92125 11.92125 8.4675 11.4675 8 11 C8 9.68 8 8.36 8 7 C7.01 7 6.02 7 5 7 C5 6.01 5 5.02 5 4 C2.525 3.01 2.525 3.01 0 2 C0 1.34 0 0.68 0 0 Z " fill="#D3A86B" transform="translate(151,82)"/>
<path d="M0 0 C0 4.95 0 9.9 0 15 C-3.63 15.99 -7.26 16.98 -11 18 C-11.33 17.34 -11.66 16.68 -12 16 C-8.62902617 14.50178941 -6.79557881 14 -3 14 C-3 10.37 -3 6.74 -3 3 C-4.7325 3.309375 -6.465 3.61875 -8.25 3.9375 C-9.22453125 4.11152344 -10.1990625 4.28554687 -11.203125 4.46484375 C-12.87408094 4.78456577 -14.53983308 5.13881422 -16.1875 5.5625 C-18.4873491 6.11763599 -20.64388218 6.06544772 -23 6 C-23 5.34 -23 4.68 -23 4 C-7.25512528 -0.59225513 -7.25512528 -0.59225513 0 0 Z " fill="#3A2C19" transform="translate(91,64)"/>
<path d="M0 0 C-0.875 3.875 -0.875 3.875 -2 5 C-3.66617115 5.04063832 -5.33388095 5.042721 -7 5 C-7 5.66 -7 6.32 -7 7 C-7.99 7.33 -8.98 7.66 -10 8 C-10.99 9.485 -10.99 9.485 -12 11 C-12.99 11.33 -13.98 11.66 -15 12 C-15.33 12.99 -15.66 13.98 -16 15 C-17.1446875 15.99 -17.1446875 15.99 -18.3125 17 C-26.58309593 25.1749821 -26.14617876 39.1587172 -27 50 C-27.33 50 -27.66 50 -28 50 C-28.57777641 35.41114566 -27.7038398 23.72189498 -18 12 C-6.29893238 0 -6.29893238 0 0 0 Z " fill="#332512" transform="translate(57,74)"/>
<path d="M0 0 C-0.33 0.99 -0.66 1.98 -1 3 C-5.64475959 3.04944066 -10.28936596 3.08573863 -14.93432617 3.10986328 C-16.51443144 3.11992041 -18.0945181 3.13356785 -19.67456055 3.15087891 C-21.9458475 3.17514022 -24.21688836 3.18648582 -26.48828125 3.1953125 C-27.19463211 3.20563507 -27.90098297 3.21595764 -28.6287384 3.22659302 C-32.32197792 3.22743775 -33.83919216 3.10720523 -37 1 C-34.37840029 -1.62159971 -27.09876696 -0.49438286 -23.5625 -0.625 C-21.83483398 -0.70234375 -21.83483398 -0.70234375 -20.07226562 -0.78125 C-13.27995927 -1.04323346 -6.73915123 -0.91368541 0 0 Z " fill="#EBAC4D" transform="translate(134,153)"/>
<path d="M0 0 C1.62490954 -0.02698189 3.24994633 -0.04638757 4.875 -0.0625 C5.77992188 -0.07410156 6.68484375 -0.08570312 7.6171875 -0.09765625 C10 0 10 0 12 1 C12 1.66 12 2.32 12 3 C13.051875 3.103125 14.10375 3.20625 15.1875 3.3125 C20.50776576 4.27189219 22.92561638 5.66427982 26.3125 9.875 C28.00290095 13.00537213 28.40862107 14.52672091 28 18 C27.2575 16.948125 27.2575 16.948125 26.5 15.875 C20.61385711 9.10593568 14.48438984 6.13802488 6.01635742 3.6484375 C4.32922214 3.14695538 2.66228433 2.57855041 1 2 C0.67 1.34 0.34 0.68 0 0 Z " fill="#3D2810" transform="translate(136,76)"/>
<path d="M0 0 C0.71285156 0.13277344 1.42570312 0.26554688 2.16015625 0.40234375 C3.11792969 0.57894531 4.07570313 0.75554687 5.0625 0.9375 C6.47208984 1.19853516 6.47208984 1.19853516 7.91015625 1.46484375 C13.70706862 2.46886018 19.36163923 3.13962006 25.24609375 3.31640625 C26.23005882 3.3475779 26.23005882 3.3475779 27.23390198 3.37937927 C29.30167546 3.44405938 31.36956101 3.50337466 33.4375 3.5625 C34.85092242 3.60576307 36.26433407 3.64937965 37.67773438 3.69335938 C41.11837471 3.79965516 44.55913692 3.90114472 48 4 C48 4.33 48 4.66 48 5 C43.05832428 5.98205002 38.32835696 6.19267259 33.3125 6.1875 C32.49322021 6.18669434 31.67394043 6.18588867 30.82983398 6.18505859 C24.70767066 6.12560314 18.65278797 5.74295814 12.5625 5.125 C11.76432861 5.04660889 10.96615723 4.96821777 10.14379883 4.88745117 C6.40808046 4.46744963 3.21125461 4.03807626 0 2 C0 1.34 0 0.68 0 0 Z " fill="#362612" transform="translate(84,154)"/>
<path d="M0 0 C0.33 0 0.66 0 1 0 C1 7.59 1 15.18 1 23 C4.63 23.66 8.26 24.32 12 25 C12 25.99 12 26.98 12 28 C17.28 28 22.56 28 28 28 C28 28.33 28 28.66 28 29 C24.83341337 29.05880804 21.66697007 29.09386406 18.5 29.125 C17.613125 29.14175781 16.72625 29.15851563 15.8125 29.17578125 C14.49765625 29.18544922 14.49765625 29.18544922 13.15625 29.1953125 C12.36025391 29.20578613 11.56425781 29.21625977 10.74414062 29.22705078 C7.0990878 28.92545833 3.5483044 27.8870761 0 27 C0 18.09 0 9.18 0 0 Z " fill="#594426" transform="translate(96,124)"/>
<path d="M0 0 C0.66 0.33 1.32 0.66 2 1 C1.83846436 1.68537842 1.67692871 2.37075684 1.51049805 3.0769043 C0.60491619 8.2622374 0.81406947 13.50361265 0.81469727 18.75512695 C0.81251768 20.79595009 0.79435237 22.83622588 0.77539062 24.87695312 C0.76543446 31.59736516 0.92231781 37.5862854 3 44 C2.34 44 1.68 44 1 44 C-2.36199135 36.82361214 -2.4196166 30.40771956 -2.3125 22.5625 C-2.31572266 21.38623047 -2.31894531 20.20996094 -2.32226562 18.99804688 C-2.28143334 12.35723309 -1.72250394 6.41649873 0 0 Z " fill="#4F320D" transform="translate(65,95)"/>
<path d="M0 0 C0.33 0 0.66 0 1 0 C1.01417969 1.07636719 1.02835938 2.15273437 1.04296875 3.26171875 C1.28999886 12.18145331 2.26920904 19.24270577 5.94140625 27.4609375 C7 30 7 30 7 33 C4.6171875 32.34375 4.6171875 32.34375 2 31 C-2.63530132 21.5452132 -0.94124689 10.10422868 0 0 Z " fill="#DBA95C" transform="translate(28,110)"/>
<path d="M0 0 C0.66 0 1.32 0 2 0 C2.08133791 1.91595968 2.13934367 3.83291932 2.1875 5.75 C2.23970703 7.35101563 2.23970703 7.35101563 2.29296875 8.984375 C1.96625336 12.34736544 1.36910987 13.63641253 -1 16 C-3.70716242 16.90238747 -5.23776768 17.11851302 -8.01171875 17.09765625 C-9.14770508 17.09282227 -9.14770508 17.09282227 -10.30664062 17.08789062 C-11.09232422 17.07951172 -11.87800781 17.07113281 -12.6875 17.0625 C-13.48478516 17.05798828 -14.28207031 17.05347656 -15.10351562 17.04882812 C-17.06904257 17.0370585 -19.03453085 17.01912348 -21 17 C-18.03651571 15.0243438 -17.31979627 14.73623141 -13.98828125 14.5859375 C-13.23095703 14.54726562 -12.47363281 14.50859375 -11.69335938 14.46875 C-10.90767578 14.4378125 -10.12199219 14.406875 -9.3125 14.375 C-8.51521484 14.33632812 -7.71792969 14.29765625 -6.89648438 14.2578125 C-4.93136525 14.16367506 -2.9657146 14.08075368 -1 14 C-0.67 9.38 -0.34 4.76 0 0 Z " fill="#CFA66F" transform="translate(94,171)"/>
<path d="M0 0 C1.77503906 0.03480469 1.77503906 0.03480469 3.5859375 0.0703125 C5.36871094 0.09738281 5.36871094 0.09738281 7.1875 0.125 C8.10273438 0.14820313 9.01796875 0.17140625 9.9609375 0.1953125 C9.9609375 0.5253125 9.9609375 0.8553125 9.9609375 1.1953125 C5.9081859 2.17779774 2.12232013 2.27690824 -2.0390625 2.1953125 C-1.89722554 3.94564094 -1.75042821 5.69556784 -1.6015625 7.4453125 C-1.52035156 8.41984375 -1.43914062 9.394375 -1.35546875 10.3984375 C-1.08607597 12.77973665 -0.82265854 14.93274379 -0.0390625 17.1953125 C0.6209375 17.5253125 1.2809375 17.8553125 1.9609375 18.1953125 C0.3109375 17.8653125 -1.3390625 17.5353125 -3.0390625 17.1953125 C-5.0621101 12.26413398 -5.75776067 7.47985788 -5.0390625 2.1953125 C-3.0390625 0.1953125 -3.0390625 0.1953125 0 0 Z " fill="#462C0C" transform="translate(137.0390625,168.8046875)"/>
<path d="M0 0 C1 3 1 3 0.0390625 5.375 C-0.66089844 6.674375 -0.66089844 6.674375 -1.375 8 C-3.87463871 12.69205925 -5.11880632 16.20777072 -5.31640625 21.54296875 C-5.35830078 22.61611328 -5.40019531 23.68925781 -5.44335938 24.79492188 C-5.48267578 25.91447266 -5.52199219 27.03402344 -5.5625 28.1875 C-5.60568359 29.31865234 -5.64886719 30.44980469 -5.69335938 31.61523438 C-5.79949099 34.41003354 -5.90154385 37.20492162 -6 40 C-6.33 40 -6.66 40 -7 40 C-7.89673612 33.9470312 -8.19517851 28.11559337 -8 22 C-7.98324219 21.17242187 -7.96648438 20.34484375 -7.94921875 19.4921875 C-7.58107077 12.78137572 -5.33518436 7.78426807 -2 2 C-1.34 2 -0.68 2 0 2 C0 1.34 0 0.68 0 0 Z " fill="#E5A953" transform="translate(33,89)"/>
<path d="M0 0 C3.55780196 0.60990891 6.6828589 1.5783681 10 3 C10 3.66 10 4.32 10 5 C10.53625 5.268125 11.0725 5.53625 11.625 5.8125 C12.40875 6.204375 13.1925 6.59625 14 7 C15.010625 7.474375 16.02125 7.94875 17.0625 8.4375 C19.59496254 9.78455454 21.25058298 10.76463381 23 13 C23 13.66 23 14.32 23 15 C23.66 15.33 24.32 15.66 25 16 C25.625 18.5625 25.625 18.5625 26 21 C25.360625 20.34 24.72125 19.68 24.0625 19 C23.04636888 17.9952223 22.02480108 16.99593345 21 16 C20.36835938 15.38382813 19.73671875 14.76765625 19.0859375 14.1328125 C13.91173872 9.29728855 8.51610715 5.74977658 2.30859375 2.34765625 C1.54675781 1.90292969 0.78492188 1.45820312 0 1 C0 0.67 0 0.34 0 0 Z " fill="#D8A867" transform="translate(170,70)"/>
<path d="M0 0 C4.43057334 1.65717181 8.55182557 3.77797368 12.75 5.9375 C19.95183657 9.58953864 26.94386062 12.70062268 35 14 C35 14.33 35 14.66 35 15 C31.7 15 28.4 15 25 15 C25 14.34 25 13.68 25 13 C23.845 12.938125 22.69 12.87625 21.5 12.8125 C17.16024555 12.2960461 14.30623629 10.62950362 10.76171875 8.15625 C8.89256596 6.82187396 8.89256596 6.82187396 6 6 C6 5.34 6 4.68 6 4 C5.38125 3.896875 4.7625 3.79375 4.125 3.6875 C2 3 2 3 0 0 Z " fill="#D9AA63" transform="translate(46,154)"/>
<path d="M0 0 C0.98484375 0.00902344 1.9696875 0.01804687 2.984375 0.02734375 C4.10585937 0.04474609 4.10585937 0.04474609 5.25 0.0625 C5.25 0.3925 5.25 0.7225 5.25 1.0625 C4.25097656 1.19527344 3.25195312 1.32804687 2.22265625 1.46484375 C0.93230469 1.64144531 -0.35804687 1.81804688 -1.6875 2 C-2.97527344 2.17402344 -4.26304688 2.34804688 -5.58984375 2.52734375 C-8.60466313 2.72412423 -8.60466313 2.72412423 -9.75 4.0625 C-9.82148199 5.41493917 -9.83399454 6.77084367 -9.8125 8.125 C-9.791875 9.424375 -9.77125 10.72375 -9.75 12.0625 C-7.77 12.7225 -5.79 13.3825 -3.75 14.0625 C-3.75 14.3925 -3.75 14.7225 -3.75 15.0625 C-7.7784349 15.24561068 -10.23375245 15.00408017 -13.75 13.0625 C-13.97892024 10.02930679 -14.09411204 7.08961063 -13.75 4.0625 C-10.10516879 -0.10302138 -5.23363051 -0.06230513 0 0 Z " fill="#C19A5E" transform="translate(81.75,31.9375)"/>
<path d="M0 0 C1.81242052 -0.02687279 3.62495233 -0.04633715 5.4375 -0.0625 C6.44683594 -0.07410156 7.45617187 -0.08570313 8.49609375 -0.09765625 C11 0 11 0 12 1 C13.34747084 1.23075082 14.70377565 1.41153063 16.0625 1.5625 C17.361875 1.706875 18.66125 1.85125 20 2 C20 3.32 20 4.64 20 6 C12.95992045 5.0026554 6.56098608 3.7758018 0 1 C0 0.67 0 0.34 0 0 Z " fill="#452D11" transform="translate(64,163)"/>
<path d="M0 0 C0 0.99 0 1.98 0 3 C9.57 3 19.14 3 29 3 C29 3.33 29 3.66 29 4 C24.928994 4.05009283 20.85811168 4.08604089 16.78686523 4.10986328 C15.40695056 4.11981266 14.02705635 4.13337705 12.6472168 4.15087891 C4.19223657 4.25529929 -3.74810004 3.9269278 -12 2 C-12 1.67 -12 1.34 -12 1 C-7.9472484 0.01751476 -4.16138263 -0.08159574 0 0 Z " fill="#E7A94F" transform="translate(100,225)"/>
<path d="M0 0 C1.8871875 0.061875 1.8871875 0.061875 3.8125 0.125 C4.1425 1.115 4.4725 2.105 4.8125 3.125 C5.4725 3.455 6.1325 3.785 6.8125 4.125 C6.4825 10.395 6.1525 16.665 5.8125 23.125 C5.4825 23.125 5.1525 23.125 4.8125 23.125 C4.75191406 21.92101562 4.69132812 20.71703125 4.62890625 19.4765625 C4.54450268 17.90102923 4.45985459 16.32550904 4.375 14.75 C4.33568359 13.9559375 4.29636719 13.161875 4.25585938 12.34375 C4.12356596 8.09898779 4.12356596 8.09898779 2.8125 4.125 C0.46342125 3.43568656 0.46342125 3.43568656 -2.25 3 C-3.16910156 2.83242188 -4.08820313 2.66484375 -5.03515625 2.4921875 C-5.74542969 2.37101562 -6.45570312 2.24984375 -7.1875 2.125 C-4.09861478 0.06574319 -3.47814073 -0.1140374 0 0 Z " fill="#4C381A" transform="translate(91.1875,45.875)"/>
<path d="M0 0 C1.65 0 3.3 0 5 0 C5 0.99 5 1.98 5 3 C3 3.66666667 1 4.33333333 -1 5 C-1.73476562 5.26425781 -2.46953125 5.52851562 -3.2265625 5.80078125 C-7.25591641 7.2225098 -10.65811625 8.4201823 -15 8 C-8.625 3.75 -8.625 3.75 -4.8125 3.375 C-3.554375 3.25125 -2.29625 3.1275 -1 3 C-0.67 2.01 -0.34 1.02 0 0 Z " fill="#E6A94D" transform="translate(78,59)"/>
<path d="M0 0 C0.99 0 1.98 0 3 0 C3 1.32 3 2.64 3 4 C2.34 4 1.68 4 1 4 C1.66 5.65 2.32 7.3 3 9 C2.01 9.495 2.01 9.495 1 10 C0.71125 10.78375 0.4225 11.5675 0.125 12.375 C-1.18798225 15.43862524 -2.16450529 16.30753344 -5 18 C-7.578125 18.29296875 -7.578125 18.29296875 -10.25 18.1875 C-11.14203125 18.16042969 -12.0340625 18.13335937 -12.953125 18.10546875 C-13.62859375 18.07066406 -14.3040625 18.03585938 -15 18 C-15 17.67 -15 17.34 -15 17 C-14.22914062 16.89042969 -13.45828125 16.78085938 -12.6640625 16.66796875 C-11.66117187 16.50941406 -10.65828125 16.35085937 -9.625 16.1875 C-8.62726563 16.03667969 -7.62953125 15.88585937 -6.6015625 15.73046875 C-3.6712636 15.21227702 -3.6712636 15.21227702 -2 12 C-1.55570562 9.95130926 -1.18705805 7.88545707 -0.875 5.8125 C-0.70742187 4.72582031 -0.53984375 3.63914063 -0.3671875 2.51953125 C-0.24601562 1.68808594 -0.12484375 0.85664063 0 0 Z " fill="#2F2215" transform="translate(97,171)"/>
<path d="M0 0 C0.66 0 1.32 0 2 0 C2 4.95 2 9.9 2 15 C-3.445 16.485 -3.445 16.485 -9 18 C-9.33 17.34 -9.66 16.68 -10 16 C-7.03 15.01 -4.06 14.02 -1 13 C-0.67 8.71 -0.34 4.42 0 0 Z " fill="#432504" transform="translate(89,64)"/>
<path d="M0 0 C0.495 0.70125 0.99 1.4025 1.5 2.125 C4.15375607 5.17681947 6.92293092 7.3279072 10.1953125 9.66796875 C12 11 12 11 14 13 C11.03 13 8.06 13 5 13 C4.67 11.68 4.34 10.36 4 9 C3.34 9 2.68 9 2 9 C0.50178941 5.62902617 0 3.79557881 0 0 Z " fill="#372612" transform="translate(68,140)"/>
<path d="M0 0 C0.99 0.33 1.98 0.66 3 1 C3 2.32 3 3.64 3 5 C6.84700632 7.08379509 10.90054429 8.49686624 15 10 C15 11.32 15 12.64 15 14 C8.3562218 12.37956629 3.74699657 8.62049485 0 3 C0 2.01 0 1.02 0 0 Z " fill="#D6A85F" transform="translate(69,139)"/>
<path d="M0 0 C7.73389936 9.68399433 7.49670132 20.23093821 7 32 C6.67 32 6.34 32 6 32 C5.67 27.05 5.34 22.1 5 17 C4.67 17 4.34 17 4 17 C3.51933465 15.10454608 3.04053257 13.20861961 2.5625 11.3125 C2.29566406 10.25675781 2.02882812 9.20101562 1.75390625 8.11328125 C1.10102068 5.4171683 0.52058807 2.7242424 0 0 Z " fill="#4F300B" transform="translate(196,92)"/>
<path d="M0 0 C2.93804996 -0.08086376 5.87388075 -0.1404283 8.8125 -0.1875 C9.64587891 -0.21263672 10.47925781 -0.23777344 11.33789062 -0.26367188 C12.54155273 -0.27817383 12.54155273 -0.27817383 13.76953125 -0.29296875 C14.87711792 -0.31653442 14.87711792 -0.31653442 16.00708008 -0.34057617 C18.58156881 0.09938607 19.44276386 0.9354618 21 3 C21.375 6 21.375 6 21 9 C19.5 10.875 19.5 10.875 18 12 C17.34 11.34 16.68 10.68 16 10 C16.99 9.67 17.98 9.34 19 9 C18.65772428 6.02934491 18.65772428 6.02934491 18 3 C14.828262 1.414131 11.36486178 1.62133555 7.875 1.4375 C7.12089844 1.39431641 6.36679688 1.35113281 5.58984375 1.30664062 C3.72678112 1.2005168 1.86341476 1.09974999 0 1 C0 0.67 0 0.34 0 0 Z " fill="#4A2D0C" transform="translate(140,188)"/>
<path d="M0 0 C0.33 0 0.66 0 1 0 C2.96500372 18.77280343 2.96500372 18.77280343 0 26 C-0.66 26 -1.32 26 -2 26 C-1.34 17.42 -0.68 8.84 0 0 Z " fill="#47341D" transform="translate(167,111)"/>
<path d="M0 0 C7.34785536 3.45679248 12.51993521 8.05354671 18 14 C17.01 14.33 16.02 14.66 15 15 C14.1646875 13.8553125 14.1646875 13.8553125 13.3125 12.6875 C11.02757355 10.03204493 8.9864388 8.7420893 6 7 C6 6.34 6 5.68 6 5 C4.02 4.34 2.04 3.68 0 3 C0 2.01 0 1.02 0 0 Z " fill="#3E250B" transform="translate(176,74)"/>
<path d="M0 0 C0 0.33 0 0.66 0 1 C-8.91 1.99 -8.91 1.99 -18 3 C-18.33 3.99 -18.66 4.98 -19 6 C-19.66 5.67 -20.32 5.34 -21 5 C-20.42578125 3.08203125 -20.42578125 3.08203125 -19 1 C-15.91796875 0.13671875 -15.91796875 0.13671875 -12.1875 -0.3125 C-10.96417969 -0.47363281 -9.74085937 -0.63476562 -8.48046875 -0.80078125 C-5.36473878 -0.9791227 -2.99546267 -0.7930844 0 0 Z " fill="#3B2812" transform="translate(92,33)"/>
<path d="M0 0 C1.0209375 0.37898438 1.0209375 0.37898438 2.0625 0.765625 C4.15404856 1.82826661 5.39798815 3.05696474 7 4.75 C7.66 5.08 8.32 5.41 9 5.75 C9 6.41 9 7.07 9 7.75 C5.65750371 7.15312566 3.53563658 6.01396123 1 3.75 C1 3.09 1 2.43 1 1.75 C0.05125 1.79125 -0.8975 1.8325 -1.875 1.875 C-5 1.75 -5 1.75 -7 -0.25 C-3.68043709 -1.35652097 -3.11203583 -1.20237748 0 0 Z " fill="#E3AB57" transform="translate(147,80.25)"/>
<path d="M0 0 C1.12588014 0.95729916 2.2506715 1.91587895 3.375 2.875 C4.00148438 3.40867188 4.62796875 3.94234375 5.2734375 4.4921875 C6.55836651 5.61432007 7.79371975 6.79371975 9 8 C11.06874034 8.6425235 11.06874034 8.6425235 13 9 C12.67 10.32 12.34 11.64 12 13 C10.17816608 11.59535704 8.36779439 10.1758376 6.5625 8.75 C5.55316406 7.96109375 4.54382812 7.1721875 3.50390625 6.359375 C1.09917158 4.09344717 0.28751107 3.21422633 0 0 Z " fill="#42290D" transform="translate(39,144)"/>
<path d="M0 0 C0.33 0 0.66 0 1 0 C1.06058594 1.15757813 1.12117188 2.31515625 1.18359375 3.5078125 C1.26805502 5.04688457 1.35270018 6.58594655 1.4375 8.125 C1.47681641 8.88554688 1.51613281 9.64609375 1.55664062 10.4296875 C1.79509002 14.68509203 2.20230237 18.80370826 3 23 C2.34 23 1.68 23 1 23 C-1.55975195 18.2029076 -1.03828449 13.92381452 -0.625 8.6875 C-0.56828125 7.85154297 -0.5115625 7.01558594 -0.453125 6.15429688 C-0.31240504 4.10213072 -0.1576007 2.05093882 0 0 Z " fill="#B18C57" transform="translate(28,110)"/>
<path d="M0 0 C0.99 0 1.98 0 3 0 C5.51005664 3.76508495 5.0258295 6.39461609 4.625 10.6875 C4.56828125 11.38939453 4.5115625 12.09128906 4.453125 12.81445312 C4.31195359 14.54380285 4.15728041 16.27204088 4 18 C3.67 18 3.34 18 3 18 C2.95101562 17.07316406 2.90203125 16.14632812 2.8515625 15.19140625 C2.77679688 13.99386719 2.70203125 12.79632813 2.625 11.5625 C2.55539063 10.36753906 2.48578125 9.17257813 2.4140625 7.94140625 C2.27742187 6.97074219 2.14078125 6.00007813 2 5 C1.34 4.67 0.68 4.34 0 4 C0 2.68 0 1.36 0 0 Z " fill="#CD9C53" transform="translate(132,19)"/>
<path d="M0 0 C-2.3260857 0.38063221 -4.66055264 0.71269945 -7 1 C-7.33 0.67 -7.66 0.34 -8 0 C-10.18292774 -0.23481693 -12.37203174 -0.41363323 -14.5625 -0.5625 C-16.35880859 -0.68818359 -16.35880859 -0.68818359 -18.19140625 -0.81640625 C-19.11824219 -0.87699219 -20.04507813 -0.93757812 -21 -1 C-21 -1.33 -21 -1.66 -21 -2 C-14.19315506 -3.65571904 -6.17222659 -3.54975473 0 0 Z " fill="#E7AF58" transform="translate(145,4)"/>
<path d="M0 0 C1.32 0 2.64 0 4 0 C4 0.66 4 1.32 4 2 C4.598125 2.12375 5.19625 2.2475 5.8125 2.375 C8 3 8 3 11 5 C11 5.66 11 6.32 11 7 C6.96678237 5.78065514 3.45730521 4.44045073 0 2 C0 1.34 0 0.68 0 0 Z " fill="#3F280E" transform="translate(53,156)"/>
<path d="M0 0 C3.33333333 3.33333333 6.66666667 6.66666667 10 10 C9.01 10.495 9.01 10.495 8 11 C7.34 10.67 6.68 10.34 6 10 C6 9.34 6 8.68 6 8 C4.68 7.67 3.36 7.34 2 7 C1.34 4.69 0.68 2.38 0 0 Z " fill="#D9AA63" transform="translate(36,143)"/>
<path d="M0 0 C2.29633824 3.44450737 2.54016485 5.93812283 3 10 C3.66 10 4.32 10 5 10 C5.33 11.98 5.66 13.96 6 16 C1.8685941 12.27363389 0.15622042 7.49952678 -0.1875 2 C-0.125625 1.34 -0.06375 0.68 0 0 Z " fill="#39260D" transform="translate(30,125)"/>
<path d="M0 0 C1.32 0.33 2.64 0.66 4 1 C2.37615858 2.14747465 0.75088944 3.2929291 -0.875 4.4375 C-2.23238281 5.39462891 -2.23238281 5.39462891 -3.6171875 6.37109375 C-6 8 -6 8 -8 9 C-7.67 7.35 -7.34 5.7 -7 4 C-4.69 3.34 -2.38 2.68 0 2 C0 1.34 0 0.68 0 0 Z " fill="#CDA576" transform="translate(52,73)"/>
<path d="M0 0 C0 2 0 2 -1.0625 3.5625 C-3.92242168 5.68437738 -6.4995458 5.80906613 -10 6 C-10.66 5.34 -11.32 4.68 -12 4 C-10.3767313 3.3291288 -8.75132422 2.66342971 -7.125 2 C-6.22007812 1.62875 -5.31515625 1.2575 -4.3828125 0.875 C-2 0 -2 0 0 0 Z " fill="#D6A152" transform="translate(173,161)"/>
<path d="M0 0 C0.99 0.66 1.98 1.32 3 2 C2.360625 2.268125 1.72125 2.53625 1.0625 2.8125 C-1.33131686 3.88667752 -1.33131686 3.88667752 -2 7 C-4.0625 8.6875 -4.0625 8.6875 -6 10 C-6.66 9.67 -7.32 9.34 -8 9 C-5.36 6.03 -2.72 3.06 0 0 Z " fill="#40331D" transform="translate(43,82)"/>
<path d="M0 0 C0.66 0.66 1.32 1.32 2 2 C1.44570312 2.48210937 0.89140625 2.96421875 0.3203125 3.4609375 C-0.40414062 4.09257813 -1.12859375 4.72421875 -1.875 5.375 C-2.59429687 6.00148438 -3.31359375 6.62796875 -4.0546875 7.2734375 C-5.4076598 8.47426834 -6.7208345 9.7208345 -8 11 C-8 9.68 -8 8.36 -8 7 C-7.34 7 -6.68 7 -6 7 C-5.7525 6.21625 -5.505 5.4325 -5.25 4.625 C-3.84610901 1.67682892 -2.99324263 1.0975223 0 0 Z " fill="#472909" transform="translate(76,82)"/>
<path d="M0 0 C3.3 0.33 6.6 0.66 10 1 C9.67 1.99 9.34 2.98 9 4 C5.7 4 2.4 4 -1 4 C0.32 3.34 1.64 2.68 3 2 C2.01 1.34 1.02 0.68 0 0 Z " fill="#DBA652" transform="translate(124,152)"/>
<path d="M0 0 C-5.03343465 5.45288754 -5.03343465 5.45288754 -9 6 C-9.99 6.495 -9.99 6.495 -11 7 C-8.76456876 1.59770784 -5.88000164 -0.49000014 0 0 Z " fill="#312415" transform="translate(84,78)"/>
<path d="M0 0 C2.64 0 5.28 0 8 0 C3.7172612 2.8551592 0.85541942 3.11672494 -4.1875 3.0625 C-5.81751953 3.04896484 -5.81751953 3.04896484 -7.48046875 3.03515625 C-8.31191406 3.02355469 -9.14335938 3.01195312 -10 3 C-10 2.67 -10 2.34 -10 2 C-6.7 2 -3.4 2 0 2 C0 1.34 0 0.68 0 0 Z " fill="#E3AB56" transform="translate(103,25)"/>
<path d="M0 0 C2.64 0 5.28 0 8 0 C8 1.32 8 2.64 8 4 C5.36 3.67 2.72 3.34 0 3 C0 2.01 0 1.02 0 0 Z " fill="#382B16" transform="translate(76,165)"/>
<path d="M0 0 C2.97 0.33 5.94 0.66 9 1 C9 1.33 9 1.66 9 2 C7.42074025 2.39180108 5.83631206 2.76280736 4.25 3.125 C3.36828125 3.33382812 2.4865625 3.54265625 1.578125 3.7578125 C-1.32875493 4.03088304 -2.56661348 3.53508028 -5 2 C-3.35 2 -1.7 2 0 2 C0 1.34 0 0.68 0 0 Z " fill="#D9AA60" transform="translate(95,151)"/>
<path d="M0 0 C0 0.99 0 1.98 0 3 C-1.65788785 4.34423339 -3.32576317 5.67618483 -5 7 C-6.78962819 9.61857695 -6.78962819 9.61857695 -8 12 C-8.33 10.68 -8.66 9.36 -9 8 C-6.03 5.36 -3.06 2.72 0 0 Z " fill="#E1AD63" transform="translate(78,83)"/>
<path d="M0 0 C0.99 0.33 1.98 0.66 3 1 C3.91297308 5.97063121 3.91297308 10.02936879 3 15 C2.67 15 2.34 15 2 15 C1.93941406 14.16855469 1.87882812 13.33710937 1.81640625 12.48046875 C1.73261719 11.39378906 1.64882812 10.30710937 1.5625 9.1875 C1.48128906 8.10855469 1.40007812 7.02960937 1.31640625 5.91796875 C1.09787539 2.94010095 1.09787539 2.94010095 0 0 Z " fill="#D0A663" transform="translate(92,49)"/>
<path d="M0 0 C0.66 0.33 1.32 0.66 2 1 C1.01 2.485 1.01 2.485 0 4 C-0.41203933 7.21390677 -0.28103013 8.56674522 1.5 11.3125 C1.995 11.869375 2.49 12.42625 3 13 C1.68 13 0.36 13 -1 13 C-2.17664871 9.47005387 -2.19850603 6.70544587 -2 3 C-1.34 2.01 -0.68 1.02 0 0 Z " fill="#D8AB69" transform="translate(71,188)"/>
<path d="M0 0 C0.99 0 1.98 0 3 0 C3.33 0.99 3.66 1.98 4 3 C-0.95 4.485 -0.95 4.485 -6 6 C-6.33 5.34 -6.66 4.68 -7 4 C-3.535 3.505 -3.535 3.505 0 3 C0 2.01 0 1.02 0 0 Z " fill="#D1A76A" transform="translate(148,149)"/>
<path d="M0 0 C0.33 0.66 0.66 1.32 1 2 C2.32 2 3.64 2 5 2 C5.33 3.32 5.66 4.64 6 6 C4.02 6 2.04 6 0 6 C0 4.02 0 2.04 0 0 Z " fill="#2F251B" transform="translate(190,87)"/>
<path d="M0 0 C1.32 0.33 2.64 0.66 4 1 C3.67 1.66 3.34 2.32 3 3 C2.01 3.33 1.02 3.66 0 4 C-0.99 5.485 -0.99 5.485 -2 7 C-2.99 6.67 -3.98 6.34 -5 6 C-3.625 4 -3.625 4 -2 2 C-1.34 2 -0.68 2 0 2 C0 1.34 0 0.68 0 0 Z " fill="#E5A955" transform="translate(41,78)"/>
<path d="M0 0 C4.82360189 -0.19294408 8.49646738 0.24252386 13 2 C10.58959839 3.53690745 9.49917715 4.09752136 6.640625 3.5390625 C5.85171875 3.23742187 5.0628125 2.93578125 4.25 2.625 C3.45078125 2.32851562 2.6515625 2.03203125 1.828125 1.7265625 C1.22484375 1.48679687 0.6215625 1.24703125 0 1 C0 0.67 0 0.34 0 0 Z " fill="#C79E61" transform="translate(159,67)"/>
<path d="M0 0 C0.66 0 1.32 0 2 0 C0.68775452 3.93673644 -0.91910327 6.22719294 -4 9 C-4 7.35 -4 5.7 -4 4 C-2.68 3.67 -1.36 3.34 0 3 C0 2.01 0 1.02 0 0 Z " fill="#4B2909" transform="translate(196,137)"/>
<path d="M0 0 C0 0.66 0 1.32 0 2 C-2.91708924 3.98362069 -4.12380904 3.9876191 -7.75 3.625 C-8.8225 3.41875 -9.895 3.2125 -11 3 C-11 2.67 -11 2.34 -11 2 C-9.5422647 1.664061 -8.08378894 1.33133376 -6.625 1 C-5.40683594 0.7215625 -5.40683594 0.7215625 -4.1640625 0.4375 C-2 0 -2 0 0 0 Z " fill="#43321C" transform="translate(146,154)"/>
<path d="M0 0 C2.1519437 3.22791555 2.20086443 4.28400809 2 8 C0.02 8.99 0.02 8.99 -2 10 C-1.34 6.7 -0.68 3.4 0 0 Z " fill="#D8A456" transform="translate(202,124)"/>
<path d="M0 0 C-0.375 1.9375 -0.375 1.9375 -1 4 C-1.99 4.495 -1.99 4.495 -3 5 C-3.40729228 7.32156597 -3.74438677 9.6568787 -4 12 C-4.33 12 -4.66 12 -5 12 C-5.36666667 4.66666667 -5.36666667 4.66666667 -3.625 1.5 C-2 0 -2 0 0 0 Z " fill="#332515" transform="translate(68,92)"/>
<path d="M0 0 C2.97 0.99 5.94 1.98 9 3 C9 3.33 9 3.66 9 4 C2.25 4.125 2.25 4.125 0 3 C0 2.01 0 1.02 0 0 Z " fill="#3E290C" transform="translate(164,69)"/>
<path d="M0 0 C0.66 0.33 1.32 0.66 2 1 C1.505 1.53625 1.01 2.0725 0.5 2.625 C-1.37489544 5.59358445 -1.23501425 7.55312427 -1 11 C-1.66 11 -2.32 11 -3 11 C-3.08096803 9.54257537 -3.13917774 8.08387193 -3.1875 6.625 C-3.22230469 5.81289063 -3.25710937 5.00078125 -3.29296875 4.1640625 C-3.19628906 3.44992188 -3.09960938 2.73578125 -3 2 C-2.01 1.34 -1.02 0.68 0 0 Z " fill="#DEAC66" transform="translate(71,34)"/>
<path d="M0 0 C0.33 0.99 0.66 1.98 1 3 C-0.4375 5.6875 -0.4375 5.6875 -2 8 C-2.99 7.34 -3.98 6.68 -5 6 C-3.35 4.02 -1.7 2.04 0 0 Z " fill="#41301C" transform="translate(163,140)"/>
<path d="M0 0 C1.65 0.33 3.3 0.66 5 1 C4.67 1.66 4.34 2.32 4 3 C1.4375 3.625 1.4375 3.625 -1 4 C-0.67 2.68 -0.34 1.36 0 0 Z " fill="#2E2618" transform="translate(135,73)"/>
</svg>
